<?xml version="1.0" encoding="utf-8"?>
<!-- Generator: Adobe Illustrator 27.9.0, SVG Export Plug-In . SVG Version: 6.00 Build 0)  -->
<svg version="1.1" id="Layer_1" xmlns="http://www.w3.org/2000/svg" xmlns:xlink="http://www.w3.org/1999/xlink" x="0px" y="0px"
	 viewBox="0 0 1287.6 283.5" style="enable-background:new 0 0 1287.6 283.5;" xml:space="preserve">
<style type="text/css">
	.st0{fill:#FFFFFF;}
</style>
<g id="Camada_2">
	<g id="Camada_1-2">
		<path class="st0" d="M207.8,137.2c9.6-32.3,19.2-64.6,29.3-96.8C214.4,16.6,189.6,0,159.9,0C129.6,0,95.3,16.6,58,40.4
			c-9.6,32.3-19.2,64.6-28.7,96.8C19.2,169.5,9.6,201.8,0,234.5c36.8-23.2,71.1-38.8,100.9-38.8c30.2,0,55,15.6,77.7,38.8
			C188.1,201.8,198.2,169.5,207.8,137.2"/>
		<path class="st0" d="M823.1,175.5c5.3-7.3,9.2-15.5,11.6-24.2c7.1-22.7,4.5-39.8-7-50.9c-1-1.5-2.5-2.5-4.5-4
			c-11.1-8.1-30.8-12.6-57.5-12.6h-71.1L637,278.9v0.5h67.1l19.2-65.1h13.6c6,0,12.1-0.5,18.2-1c17.1-2.5,32.3-7.6,45.4-16.1
			C809.4,191.6,817.1,184.2,823.1,175.5 M772.7,147.3c-1.6,6.8-6,12.7-12.1,16.1c-1.7,1.1-3.6,2-5.5,2.5c-5,2-11.1,3-18.7,3
			l12.6-43.3h6.1c7,0.5,12.6,2,15.6,5.5C774.2,134.7,774.7,140.2,772.7,147.3"/>
		<polygon class="st0" points="486.2,179.1 491.8,159.4 446.4,159.4 454.4,131.1 506.4,131.1 520.5,83.7 402.9,83.7 415.1,40.9 
			238.1,40.9 401.1,84.9 357.6,234.5 177,234.5 344.5,279.4 411.1,279.4 432.8,205.8 478.1,205.8 		"/>
		<path class="st0" d="M1276.6,100.4c-11.1-11.1-32.3-16.6-62.5-16.6h-71.1l-39.8,136.2l-17.7,59.5h67.1l19.2-65.1h13.6
			c6,0,12.1-0.5,18.2-1c17.2-2.5,32.3-7.6,45.4-16.1c17.7-11.1,29.3-26.2,34.8-45.9C1290.6,128.6,1288.2,111.5,1276.6,100.4
			 M1221.1,147.3c-2.5,7.6-6,12.6-12.1,16.1c-1.7,1.1-3.6,2-5.6,2.5c-5,2-11.1,3-18.7,3l12.6-43.4h6c7.1,0.5,12.6,2,15.6,5.6
			C1222.6,134.7,1223,140.2,1221.1,147.3"/>
		<path class="st0" d="M1091,190.2c-3.5-8.6-13.6-19.2-29.8-32.3c0-0.5-0.5-0.5-1.5-1.5c-9.1-7.1-13.1-13.1-11.6-18.2
			c1.1-3.7,3.7-6.8,7.1-8.6c4-2.3,8.5-3.5,13.1-3.5c6.1,0,11.6,1.5,18.2,4c5.8,2.7,11.4,5.9,16.6,9.6c0.6,0.9,1.5,1.6,2.5,2
			l14.6-50.4c-5.5-2.6-11.3-4.8-17.1-6.6c-3-0.5-5.6-1.5-8.1-2c-8.4-2-17.1-3-25.7-3c-21.7,0-40.9,5.6-57.5,16.2
			c-17.2,10.6-27.8,24.2-32.8,40.9c-2.5,9.6-2.5,18.7,0.5,26.7c3.5,8.6,13.1,20.2,28.8,35.3c0,0.3,0.2,0.5,0.5,0.5c0,0,0,0,0,0
			c8.6,9.1,12.6,15.6,11.1,20.2c-1.1,4.4-4.1,8.1-8.1,10.1c-4.2,2.7-9.1,4.1-14.1,4c-6,0-12.6-2-19.7-5c-5.4-2.6-10.7-5.7-15.6-9.1
			c-2.4-1.4-4.6-3.1-6.6-5l-16.1,54c7.2,4.3,14.8,7.9,22.7,10.6c0.5,0.5,1.5,0.5,2,1c8.7,2.2,17.7,3.4,26.7,3.5
			c24.7,0,45.9-6.1,64.1-17.7s30.3-26.7,35.8-45.9C1094.5,208.4,1094,198.8,1091,190.2"/>
		<polygon class="st0" points="890.2,229 898.3,201.8 944.7,201.8 958.3,156.4 911.4,156.4 919,131.1 970.4,131.1 984.5,83.7 
			865.5,83.7 823.1,227.5 808.5,279.4 927,279.4 942.2,229 		"/>
		<path class="st0" d="M637,83.7h-75.1l-75.6,134.7l-34.3,61H517l13.6-28.7h39.8l-3.5,28.7H632l5-192.2V83.7z M575.5,211.3h-26.7
			l17.1-36.3l17.1-36.3L575.5,211.3z"/>
	</g>
</g>
</svg>
