<?xml version="1.0" encoding="utf-8"?>
<!-- Generator: Adobe Illustrator 27.9.0, SVG Export Plug-In . SVG Version: 6.00 Build 0)  -->
<svg version="1.1" id="Camada_1" xmlns="http://www.w3.org/2000/svg" xmlns:xlink="http://www.w3.org/1999/xlink" x="0px" y="0px"
	 viewBox="0 0 720 139.3" style="enable-background:new 0 0 720 139.3;" xml:space="preserve">
<style type="text/css">
	.st0{fill:#009ADE;}
	.st1{fill-rule:evenodd;clip-rule:evenodd;fill:#009ADE;}
</style>
<g>
	<g>
		<g>
			<g>
				<path class="st0" d="M66.2,81.4c2.7,0,5.2,2.1,5.2,6.9s-2.5,6.9-5.2,6.9S61,93.2,61,88.4S63.5,81.4,66.2,81.4 M66.2,93.4
					c1.5,0,2.7-1.3,2.7-5.1s-1.2-5.1-2.7-5.1s-2.7,1.3-2.7,5.1S64.7,93.4,66.2,93.4"/>
				<path class="st0" d="M73.1,86.8c0-0.6,0-1.2-0.1-1.6h2.1c0,0.6,0.1,1.2,0.1,1.8h0c0.3-0.8,1-2,2.4-2c0.2,0,0.3,0,0.4,0.1v2.2
					c-0.2-0.1-0.4-0.1-0.7-0.1c-0.9,0-2,0.6-2,2.5v5.5h-2.3"/>
				<path class="st0" d="M79.4,96.7c0.5,0.3,1.6,0.8,2.8,0.8c2.2,0,2.5-1.6,2.5-3.1v-0.9h0c-0.4,0.8-1,1.7-2.5,1.7
					c-1.3,0-3.3-0.9-3.3-5c0-2.8,0.9-5.2,3.5-5.2c1.4,0,2,0.8,2.5,1.7h0.1c0-0.5,0.1-1,0.1-1.6H87c0,0.5-0.1,1.1-0.1,1.6v7.4
					c0,3.1-0.9,5.3-4.4,5.3c-1.5,0-2.7-0.4-3.3-0.6 M82.7,93.4c1.4,0,2-1.1,2-3.3c0-2.1-0.8-3.2-1.9-3.2c-1.2,0-1.7,1.2-1.7,3.2
					C81.2,92.4,81.9,93.4,82.7,93.4"/>
				<path class="st0" d="M89.2,85.8c0.7-0.3,1.6-0.7,3-0.7c3,0,3.7,1.5,3.7,4v4.3c0,0.7,0.1,1.4,0.1,1.8H94
					c-0.1-0.4-0.1-0.9-0.1-1.4h0c-0.6,0.8-1.3,1.5-2.7,1.5c-1.5,0-2.9-1.1-2.9-2.9c0-2.7,2.1-3.4,5-3.4h0.5v-0.4
					c0-1-0.5-1.9-1.8-1.9c-1.2,0-2.2,0.6-2.6,1 M93.8,90.3h-0.2c-2,0-3.1,0.4-3.1,1.9c0,0.9,0.6,1.5,1.5,1.5c1.4,0,1.9-1.1,1.9-2.8
					V90.3z"/>
				<path class="st0" d="M97.8,86.8c0-0.6,0-1.2-0.1-1.6h2.2c0,0.5,0.1,1,0.1,1.5h0.1h0c0.3-0.6,1-1.7,2.6-1.7
					c2.2,0,2.8,1.7,2.8,3.7v6.4h-2.3v-6c0-1.5-0.4-2.2-1.3-2.2c-1.2,0-1.6,1.1-1.6,2.3v5.8h-2.3"/>
				<path class="st0" d="M107.4,80.9h2.4v2.4h-2.4 M107.4,85.2h2.3v10h-2.3V85.2z"/>
				<polyline class="st0" points="111.2,93.1 115.3,87 111.3,87 111.3,85.2 117.6,85.2 117.6,87.2 113.6,93.3 117.7,93.3 
					117.7,95.2 111.2,95.2 				"/>
				<path class="st0" d="M119.5,85.8c0.7-0.3,1.6-0.7,3-0.7c3,0,3.7,1.5,3.7,4v4.3c0,0.7,0.1,1.4,0.1,1.8h-2.1
					c-0.1-0.4-0.1-0.9-0.1-1.4h0c-0.6,0.8-1.3,1.5-2.7,1.5c-1.5,0-2.9-1.1-2.9-2.9c0-2.7,2.1-3.4,5-3.4h0.5v-0.4
					c0-1-0.5-1.9-1.8-1.9c-1.2,0-2.2,0.6-2.6,1 M124,90.3h-0.2c-2,0-3.1,0.4-3.1,1.9c0,0.9,0.6,1.5,1.5,1.5c1.4,0,1.9-1.1,1.9-2.8
					L124,90.3L124,90.3z"/>
				<path class="st0" d="M134.6,94.9c-0.5,0.2-1.3,0.4-2.3,0.4h-0.1l-0.3,1.1c0.2-0.1,0.4-0.1,0.7-0.1c1,0,1.6,0.6,1.6,1.4
					c0,1.2-1.1,1.8-2.1,1.8c-0.8,0-1.6-0.2-1.9-0.4l0.3-0.8c0.4,0.1,0.8,0.3,1.3,0.3c0.6,0,1-0.3,1-0.8s-0.4-0.7-0.9-0.7
					c-0.3,0-0.6,0.1-0.7,0.1l-0.3-0.3l0.6-1.6c-2.5-0.4-3.6-2.5-3.6-5.1c0-2.8,1.4-5.2,4.6-5.2c0.7,0,1.6,0.2,2,0.4l-0.1,1.9
					c-0.4-0.2-1-0.5-1.6-0.5c-1.8,0-2.5,1.2-2.5,3.3c0,1.9,0.9,3.3,2.6,3.3c0.6,0,1.3-0.3,1.6-0.5"/>
				<path class="st0" d="M136.2,85.8c0.6-0.3,1.6-0.7,3-0.7c3,0,3.7,1.5,3.7,4v4.3c0,0.7,0.1,1.4,0.1,1.8h-2.1
					c-0.1-0.4-0.1-0.9-0.1-1.4h0c-0.6,0.8-1.3,1.5-2.7,1.5c-1.5,0-2.9-1.1-2.9-2.9c0-2.7,2.1-3.4,5-3.4h0.5v-0.4
					c0-1-0.5-1.9-1.8-1.9c-1.1,0-2.2,0.6-2.6,1 M136.5,83.9c0-0.7,0.4-2.2,1.8-2.3c0.9,0,1.6,0.7,2.1,0.7c0.4,0,0.5-0.4,0.5-0.8h1.1
					c0,0.6-0.4,2.3-1.7,2.3c-0.7,0-1.4-0.7-2.1-0.7c-0.5,0-0.7,0.3-0.7,0.8H136.5L136.5,83.9z M140.7,90.3h-0.2
					c-2,0-3.1,0.4-3.1,1.9c0,0.9,0.6,1.5,1.5,1.5c1.4,0,1.9-1.1,1.9-2.8V90.3z"/>
				<path class="st0" d="M148.7,85c1.9,0,4.2,1.1,4.2,5.1s-2.2,5.2-4.2,5.2s-4.2-1-4.2-5.2S146.7,85,148.7,85 M148.7,93.6
					c1.5,0,1.8-1.8,1.8-3.4s-0.3-3.4-1.8-3.4s-1.8,1.8-1.8,3.4S147.2,93.6,148.7,93.6"/>
				<path class="st0" d="M61.4,98.6h3.7c2.7,0,4.1,1.6,4.1,4.1s-1.4,4.1-4.1,4.1h-1.3v5.3h-2.4 M64.7,104.9c1.5,0,2.1-0.8,2.1-2.2
					s-0.7-2.2-2.1-2.2h-0.9v4.4L64.7,104.9L64.7,104.9z"/>
				<path class="st0" d="M70,102.8c0.7-0.3,1.6-0.7,3-0.7c3,0,3.7,1.5,3.7,4v4.4c0,0.7,0.1,1.4,0.1,1.8h-2.1
					c-0.1-0.4-0.1-0.9-0.1-1.4h0c-0.6,0.8-1.3,1.5-2.7,1.5c-1.5,0-2.9-1.1-2.9-2.9c0-2.7,2.1-3.4,5-3.4h0.5v-0.4
					c0-1-0.5-1.9-1.8-1.9c-1.2,0-2.2,0.6-2.6,1 M74.6,107.3h-0.2c-2,0-3.1,0.4-3.1,1.9c0,0.9,0.6,1.5,1.5,1.5c1.4,0,1.9-1.1,1.9-2.8
					L74.6,107.3L74.6,107.3z"/>
				<path class="st0" d="M78.6,103.8c0-0.6,0-1.2-0.1-1.6h2.2c0,0.5,0.1,1,0.1,1.5h0.1h0c0.3-0.6,1-1.7,2.6-1.7
					c2.2,0,2.8,1.7,2.8,3.7v6.4h-2.3v-6c0-1.5-0.4-2.2-1.3-2.2c-1.2,0-1.6,1.1-1.6,2.3v5.8h-2.3"/>
				<rect x="87.7" y="105.7" class="st0" width="4.3" height="2"/>
				<path class="st0" d="M100.4,108.9h-4.5l-0.9,3.3h-2.4L97,98.6h2.6l4.2,13.5h-2.4 M99.9,107l-1.6-6.3h0l-1.8,6.3H99.9L99.9,107z"
					/>
				<path class="st0" d="M104.6,103.8c0-0.7,0-1.3-0.1-1.6h2.3c0,0.5,0.1,1.1,0.1,1.6h0c0.3-0.8,1.1-1.7,2.4-1.7
					c1.6,0,2.1,1,2.4,1.6c0.5-0.7,1.2-1.6,2.6-1.6c2.1,0,2.8,1.6,2.8,4v6.2h-2.3v-6.3c0-1.2-0.4-1.9-1.2-1.9c-1,0-1.6,1-1.6,2.1v6
					h-2.3v-6.3c0-1.2-0.4-1.9-1.2-1.9c-1,0-1.6,1-1.6,2.1v6h-2.3"/>
				<path class="st0" d="M125.8,111.7c-0.5,0.2-1.5,0.6-2.9,0.6c-3.1,0-4.4-2.3-4.4-5c0-3,1.5-5.3,3.9-5.3c2.1,0,3.8,1.3,3.8,5.3
					v0.5h-5.5c0,1.7,0.7,2.7,2.4,2.7c1.4,0,2.1-0.4,2.5-0.8 M124.1,106.3c0-1.8-0.6-2.7-1.6-2.7c-1.2,0-1.7,1.3-1.7,2.7H124.1z"/>
				<path class="st0" d="M127.9,103.8c0-0.6,0-1.2-0.1-1.6h2.1c0,0.6,0.1,1.2,0.1,1.8h0c0.3-0.8,1-2,2.4-2c0.1,0,0.3,0,0.4,0.1v2.2
					c-0.2-0.1-0.4-0.1-0.6-0.1c-0.9,0-2,0.6-2,2.5v5.5h-2.3"/>
				<path class="st0" d="M134.3,97.9h2.4v2.4h-2.4 M134.3,102.2h2.3v10h-2.3V102.2z"/>
				<path class="st0" d="M145.2,111.9c-0.5,0.2-1.3,0.4-2.3,0.4c-3.2,0-4.5-2.3-4.5-5.1s1.4-5.2,4.6-5.2c0.7,0,1.6,0.2,2,0.4
					l-0.1,1.9c-0.4-0.2-1-0.5-1.6-0.5c-1.8,0-2.5,1.2-2.5,3.3c0,1.9,0.9,3.3,2.6,3.3c0.6,0,1.3-0.3,1.6-0.5"/>
				<path class="st0" d="M146.8,102.8c0.6-0.3,1.6-0.7,3-0.7c3,0,3.7,1.5,3.7,4v4.4c0,0.7,0.1,1.4,0.1,1.8h-2.1
					c-0.1-0.4-0.1-0.9-0.1-1.4h0c-0.6,0.8-1.3,1.5-2.7,1.5c-1.5,0-2.9-1.1-2.9-2.9c0-2.7,2.1-3.4,5-3.4h0.5v-0.4
					c0-1-0.5-1.9-1.8-1.9c-1.1,0-2.2,0.6-2.6,1 M151.3,107.3h-0.2c-2,0-3.1,0.4-3.1,1.9c0,0.9,0.6,1.5,1.5,1.5
					c1.4,0,1.9-1.1,1.9-2.8L151.3,107.3L151.3,107.3z"/>
				<path class="st0" d="M155.3,103.8c0-0.6,0-1.2-0.1-1.6h2.2c0,0.5,0.1,1,0.1,1.5h0.1h0c0.3-0.6,1-1.7,2.6-1.7
					c2.2,0,2.8,1.7,2.8,3.7v6.4h-2.3v-6c0-1.5-0.4-2.2-1.3-2.2c-1.2,0-1.6,1.1-1.6,2.3v5.8h-2.3"/>
				<path class="st0" d="M165.2,102.8c0.6-0.3,1.6-0.7,3-0.7c3,0,3.7,1.5,3.7,4v4.4c0,0.7,0.1,1.4,0.1,1.8h-2.1
					c-0.1-0.4-0.1-0.9-0.1-1.4h0c-0.6,0.8-1.3,1.5-2.7,1.5c-1.5,0-2.9-1.1-2.9-2.9c0-2.7,2.1-3.4,5-3.4h0.5v-0.4
					c0-1-0.5-1.9-1.8-1.9c-1.1,0-2.2,0.6-2.6,1 M169.7,107.3h-0.2c-2,0-3.1,0.4-3.1,1.9c0,0.9,0.6,1.5,1.5,1.5
					c1.4,0,1.9-1.1,1.9-2.8L169.7,107.3L169.7,107.3z"/>
				<path class="st0" d="M69.2,114.5v12.8c0,0.7,0,1.3,0.1,1.7h-2.2c0-0.3-0.1-0.9-0.1-1.6H67c-0.4,0.9-1.1,1.7-2.6,1.7
					c-2.4,0-3.4-2.4-3.4-5.1c0-3.2,1.2-5.2,3.3-5.2c1.4,0,2.1,0.8,2.5,1.6h0v-6 M65.1,127.4c1.4,0,1.8-1.5,1.8-3.4s-0.5-3.3-1.8-3.3
					s-1.7,1.3-1.7,3.3C63.4,126.2,63.8,127.4,65.1,127.4"/>
				<path class="st0" d="M71.5,119.6c0.7-0.3,1.6-0.7,3-0.7c3,0,3.7,1.5,3.7,4v4.3c0,0.7,0.1,1.4,0.1,1.8h-2.1
					c-0.1-0.4-0.1-0.9-0.1-1.4h0c-0.6,0.8-1.3,1.5-2.7,1.5c-1.5,0-2.9-1.1-2.9-2.9c0-2.7,2.1-3.4,5-3.4h0.5v-0.4
					c0-1-0.5-1.9-1.8-1.9c-1.2,0-2.2,0.6-2.6,1 M76.1,124.1h-0.2c-2,0-3.1,0.4-3.1,1.9c0,0.9,0.6,1.5,1.5,1.5c1.4,0,1.9-1.1,1.9-2.8
					L76.1,124.1L76.1,124.1z"/>
				<path class="st0" d="M84.8,126.4c0.5,0.3,1.5,0.8,2.8,0.8c1,0,2-0.6,2-2c0-1-0.5-1.4-1.7-2.1l-1.2-0.7c-1.3-0.7-2.1-1.8-2.1-3.5
					c0-2.4,1.9-3.7,4.1-3.7c1.4,0,2.3,0.4,2.7,0.5l-0.1,2.1c-0.6-0.2-1.3-0.6-2.4-0.6c-1.2,0-1.8,0.7-1.8,1.6c0,1,0.7,1.4,1.4,1.8
					l1.4,0.8c1.5,0.9,2.2,1.7,2.2,3.6c0,2.8-1.9,4.1-4.3,4.1c-1.3,0-2.3-0.2-2.9-0.6"/>
				<path class="st0" d="M94.1,119.6c0.7-0.3,1.6-0.7,3-0.7c3,0,3.7,1.5,3.7,4v4.3c0,0.7,0.1,1.4,0.1,1.8h-2.1
					c-0.1-0.4-0.1-0.9-0.1-1.4h0c-0.6,0.8-1.3,1.5-2.7,1.5c-1.5,0-2.9-1.1-2.9-2.9c0-2.7,2.1-3.4,5-3.4h0.5v-0.4
					c0-1-0.5-1.9-1.8-1.9c-1.2,0-2.2,0.6-2.6,1 M98.7,124.1h-0.2c-2,0-3.1,0.4-3.1,1.9c0,0.9,0.6,1.5,1.5,1.5c1.4,0,1.9-1.1,1.9-2.8
					L98.7,124.1L98.7,124.1z"/>
				<path class="st0" d="M110.2,127.3c0,0.6,0,1.2,0.1,1.6h-2.2c0-0.5-0.1-1-0.1-1.5l-0.1,0l0,0c-0.4,0.7-1,1.7-2.6,1.7
					c-2.2,0-2.8-1.7-2.8-3.7V119h2.3v6c0,1.5,0.4,2.2,1.4,2.2c1.2,0,1.6-1.2,1.6-2.4V119h2.3 M106.6,115.1h2.2l-1.9,2.8h-1.4
					C105.4,117.9,106.6,115.1,106.6,115.1z"/>
				<path class="st0" d="M119.9,114.5v12.8c0,0.7,0,1.3,0.1,1.7h-2.2c0-0.3-0.1-0.9-0.1-1.6h-0.1c-0.4,0.9-1.1,1.7-2.6,1.7
					c-2.4,0-3.4-2.4-3.4-5.1c0-3.2,1.2-5.2,3.3-5.2c1.4,0,2.1,0.8,2.5,1.6h0v-6 M115.8,127.4c1.4,0,1.8-1.5,1.8-3.4
					s-0.5-3.3-1.8-3.3s-1.7,1.3-1.7,3.3C114.1,126.2,114.5,127.4,115.8,127.4"/>
				<path class="st0" d="M128.8,128.5c-0.5,0.2-1.5,0.6-2.9,0.6c-3.1,0-4.4-2.3-4.4-5c0-3,1.5-5.3,3.9-5.3c2.1,0,3.8,1.3,3.8,5.3
					v0.5h-5.5c0,1.7,0.7,2.7,2.4,2.7c1.4,0,2.1-0.4,2.5-0.8 M127,123.1c0-1.8-0.6-2.7-1.6-2.7c-1.2,0-1.7,1.3-1.7,2.7H127z"/>
				<path class="st0" d="M28.1,132.2c-15.5,0-28.1-12.1-28.1-27s12.6-27,28.1-27s28.1,12.1,28.1,27S43.6,132.2,28.1,132.2
					 M28.1,79.6c-14.8,0-26.8,11.6-26.8,25.7s12,25.7,26.8,25.7s26.8-11.5,26.8-25.7S42.9,79.6,28.1,79.6"/>
				<path class="st0" d="M28.1,124.8c-11.5,0-20.9-8.8-20.9-19.6s9.4-19.6,20.9-19.6S49,94.5,49,105.3S39.6,124.8,28.1,124.8
					 M28.1,87.1c-10.8,0-19.5,8.2-19.5,18.2s8.7,18.2,19.5,18.2s19.5-8.2,19.5-18.2S38.8,87.1,28.1,87.1"/>
				<polyline class="st0" points="5.9,95.9 6.3,97.2 7.6,97.2 6.6,98 7,99.1 5.8,98.2 4.7,99.2 5.2,98 4,97.2 5.4,97.2 				"/>
				<path class="st0" d="M7.1,99.3l-1.3-1l-1.1,0.9l-0.1-0.1L5.1,98l-1.3-0.8l1.5,0l0.6-1.5l0.4,1.5h1.5L6.7,98 M4.3,97.3l1,0.6
					l-0.4,1l1-0.8l1,0.8l-0.3-1l0.8-0.7H6.2l-0.3-1.2l-0.5,1.2L4.3,97.3L4.3,97.3z"/>
				<polyline class="st0" points="48.8,114.6 49.1,115.9 50.5,115.9 49.5,116.7 49.9,117.8 48.7,116.9 47.6,117.9 48,116.7 
					46.9,115.9 48.2,116 				"/>
				<path class="st0" d="M50,118l-1.3-1l-1.1,0.9l-0.1-0.1l0.4-1.2l-1.3-0.8l1.5,0l0.6-1.5l0.4,1.5h1.5l-1.1,0.8 M47.1,116l1,0.6
					l-0.4,1l1-0.8l1,0.8l-0.3-1l0.9-0.7h-1.2l-0.3-1.2l-0.5,1.2L47.1,116L47.1,116z"/>
				<polyline class="st0" points="7.3,114.3 7.7,115.6 9,115.6 8.1,116.4 8.4,117.5 7.3,116.6 6.1,117.6 6.6,116.4 5.4,115.6 
					6.8,115.7 				"/>
				<path class="st0" d="M8.6,117.7l-1.3-1l-1.1,0.9l-0.1-0.1l0.4-1.2l-1.3-0.8l1.5,0l0.6-1.5l0.4,1.5h1.5l-1.1,0.8 M5.7,115.7
					l1,0.6l-0.4,1l1-0.8l1,0.8l-0.3-1l0.9-0.7H7.6l-0.3-1.2l-0.5,1.2C6.8,115.7,5.7,115.7,5.7,115.7z"/>
				<polyline class="st0" points="50.4,94.9 50.9,96.3 52.1,96.3 51.2,97 51.5,98.2 50.4,97.2 49.2,98.2 49.7,97 48.5,96.3 
					49.9,96.3 				"/>
				<path class="st0" d="M51.7,98.4l-1.2-1.1l-1.1,1l-0.1-0.1l0.4-1.2l-1.3-0.8l1.5,0l0.6-1.5l0.5,1.4h1.4L51.3,97 M48.8,96.3l1,0.6
					l-0.4,1l1-0.9l1,0.8l-0.3-1l0.9-0.7h-1.1l-0.4-1.2l-0.5,1.2C49.9,96.4,48.8,96.3,48.8,96.3z"/>
				<path class="st0" d="M29.7,105.3c0.1,0,0.2,0,0.3,0"/>
				<polyline class="st0" points="13.9,120.6 14.4,121.1 11.7,124 11,123.5 11.8,120.3 11.8,120.3 9.8,122.4 9.2,121.9 12,119 
					12.7,119.5 11.9,122.6 11.9,122.6 				"/>
				<path class="st0" d="M29.1,84.6l-0.9-0.1l1.9-3.8l1,0.1l1.1,4l-0.9-0.1L31.1,84l-1.5-0.2 M29.8,83.2l1.1,0.1l-0.4-1.6h0
					C30.5,81.7,29.8,83.2,29.8,83.2z"/>
				<polyline class="st0" points="34.7,84.8 36.7,85.4 36.5,86.1 33.7,85.2 35,81.6 35.8,81.8 				"/>
				<path class="st0" d="M41.1,87.2c-0.6,0.9-1.4,0.9-2.3,0.4c-0.3-0.2-0.7-0.6-0.8-1.1c0-0.3,0.1-0.6,0.3-1l1.5-2.2l0.7,0.4L39,86
					c-0.3,0.4-0.2,0.8,0.2,1c0.5,0.3,0.9,0.2,1.1-0.2l1.5-2.2l0.7,0.4"/>
				<polyline class="st0" points="43,90.3 42.3,89.8 44.5,87.3 43.5,86.6 44,86.1 46.6,88.1 46.1,88.6 45.2,87.9 				"/>
				<path class="st0" d="M24.5,83.7c0,0.2,0.2,0.6,1,0.5c0.4-0.1,0.8-0.2,0.8-0.6c-0.1-0.3-0.4-0.3-0.8-0.4l-0.5,0
					c-0.7-0.1-1.4-0.1-1.5-1c-0.1-0.4,0-1.2,1.4-1.4c1.3-0.2,1.7,0.6,1.8,1L25.9,82c0-0.2-0.2-0.6-0.9-0.5c-0.3,0.1-0.7,0.2-0.6,0.6
					c0,0.3,0.3,0.3,0.5,0.3l1,0.1c0.6,0.1,1.1,0.2,1.3,0.9c0.2,1.2-1,1.4-1.4,1.5c-1.5,0.2-1.9-0.6-2-1.1"/>
				<path class="st0" d="M15.1,83.8c0.5-0.2,1.9-0.7,2.8,1s-0.3,2.5-0.8,2.7s-1.9,0.7-2.8-1S14.6,84.1,15.1,83.8 M16.8,86.9
					c0.4-0.2,0.9-0.7,0.3-1.7c-0.5-1-1.3-0.9-1.7-0.7c-0.4,0.2-0.9,0.7-0.3,1.7C15.7,87.1,16.4,87.1,16.8,86.9"/>
				<path class="st0" d="M9.1,88.6l1.4-1.4c0.8-0.8,1.5-0.4,1.7-0.1c0.3,0.3,0.4,0.7,0.3,1.1c0.3-0.1,0.6-0.2,1.1,0.3
					c0.4,0.4,0.5,0.5,0.7,0.4l0.1,0.1l-0.7,0.7c-0.2-0.1-0.4-0.2-0.7-0.5c-0.4-0.4-0.6-0.5-1,0l-0.6,0.6l1.1,1l-0.6,0.6 M11.7,88.4
					c0.3-0.3,0.4-0.6,0.1-0.8c-0.2-0.1-0.4-0.3-0.8,0.1l-0.8,0.7l0.8,0.7L11.7,88.4L11.7,88.4z"/>
				<polyline class="st0" points="39.4,122.9 40.1,122.6 42.1,125.9 41.3,126.3 38.4,124.7 38.4,124.7 39.9,127.1 39.1,127.5 
					37.1,124.1 37.9,123.7 40.8,125.3 40.8,125.3 				"/>
				<path class="st0" d="M40.9,121.8l1.5-1.1c1.1-0.8,2.1-0.1,2.5,0.5c0.5,0.7,1,1.8,0,2.6l-1.4,1 M43.7,123.9l0.7-0.5
					c0.6-0.4,0.3-1.1-0.1-1.6c-0.8-0.9-1.3-0.7-1.6-0.4l-0.7,0.5C42,121.9,43.7,123.9,43.7,123.9z"/>
				<polyline class="st0" points="47.8,121.3 47.2,121.9 44.1,119.3 44.7,118.7 				"/>
				<polyline class="st0" points="49.1,92.2 47.8,90.6 47.1,91.1 48.3,92.6 47.7,93 46.5,91.5 45.7,92.1 47.1,93.8 46.5,94.3 
					44.6,91.9 47.9,89.6 49.7,91.8 				"/>
				<path class="st0" d="M16.6,122.6c0.5,0.3,1.5,1.3,0.4,2.8c-1.1,1.5-2.4,0.9-2.9,0.6c-0.4-0.3-1.5-1.3-0.4-2.8
					S16.2,122.3,16.6,122.6 M14.5,125.4c0.4,0.2,1.1,0.4,1.7-0.5c0.7-0.9,0.3-1.5-0.1-1.7c-0.4-0.2-1.1-0.4-1.8,0.5
					C13.8,124.6,14.2,125.2,14.5,125.4"/>
				<polyline class="st0" points="21,124.7 21.8,125.1 19,128.2 18.3,127.9 18.5,123.8 19.3,124.1 19,127.2 19,127.2 				"/>
				<polyline class="st0" points="22.4,129.2 21.6,129 22.6,125.2 23.5,125.4 				"/>
				<polyline class="st0" points="32.2,129.5 31.4,129.5 31.2,126.3 31.2,126.3 30.6,129.6 29.8,129.6 28.8,126.4 28.8,126.4 
					29,129.7 28.2,129.7 27.9,125.8 29.2,125.8 30.2,128.8 30.2,128.8 30.7,125.7 32,125.6 				"/>
				<path class="st0" d="M37,127.1c0.3,1-0.2,1.6-1.3,1.8c-0.4,0.1-1,0.1-1.4-0.1c-0.3-0.2-0.5-0.5-0.6-0.8l-0.7-2.5l0.9-0.2
					l0.7,2.5c0.1,0.5,0.5,0.7,0.9,0.6c0.6-0.1,0.7-0.5,0.6-0.9l-0.7-2.5l0.9-0.2"/>
				<path class="st0" d="M9.6,94.3l-0.5,0.7l-3.4-2.2l1.1-1.5c0.4-0.6,1.2-0.7,1.8-0.3c0.3,0.2,1,0.9,0.4,1.8l-0.6,0.8 M8.2,92.5
					c0.4-0.5,0-0.8-0.2-0.8c-0.3-0.2-0.6-0.1-0.9,0.3l-0.4,0.5l1,0.7C7.7,93.1,8.2,92.5,8.2,92.5z"/>
				<path class="st0" d="M32.2,120.7c0.3,0.7-0.5,0.5-0.8,0.7h-0.2C31.2,121,31.6,120.4,32.2,120.7"/>
				<path class="st0" d="M27.7,108.7v0.3h-1.1C26.6,108.4,27.5,108.3,27.7,108.7"/>
				<polyline class="st0" points="29.6,101.9 30.1,101.3 31.5,101.2 32.1,101.1 31.8,101.6 31.1,101.9 31.2,101.6 30.3,101.6 
					29.9,101.9 				"/>
				<polyline class="st0" points="32.9,101.2 33.4,101.1 33.9,101.3 33.6,101.6 33.1,101.8 32.9,102 32.6,101.8 32.1,101.9 
					32.1,101.7 32.5,101.6 32.3,101.4 32.5,101.2 				"/>
				<polyline class="st0" points="34.4,101.7 34.6,101.4 35.2,101.5 35,101.8 34.3,101.9 				"/>
				<polyline class="st0" points="30.3,102.3 30.9,102.2 30.8,102.6 30.2,102.6 				"/>
				<polyline class="st0" points="34.2,102.2 34.5,102 34.7,102.2 34.5,102.3 				"/>
				<polyline class="st0" points="33.9,102.8 34.2,103.1 34.4,103 34.2,102.4 				"/>
				<polyline class="st0" points="35,103 35.1,102.7 34.6,102.5 				"/>
				<line class="st0" x1="35" y1="103" x2="35.1" y2="102.7"/>
				<polyline class="st0" points="35.5,102.7 35.7,102.8 35.6,103.6 35.4,102.9 				"/>
				<path class="st0" d="M26.4,90.4c0.2-0.2,0-1.2-0.3-1.2c-0.4,0.6,0.8,0.8,0,1.2 M28.2,93.4c0-0.4-0.2-1.4,0.3-2l0.3-0.3
					c-0.1,0.1-0.2,0.2-0.3,0.3L28,90.9l0.2-0.3c-0.4,0.1-0.5-0.3-0.8-0.5c-0.4,0.9,1.9,2.1-0.2,2.2c-0.1-0.1-0.4-0.3-0.3-0.5h-0.3
					v0.3h0.3c-0.1,0.1-0.3,0.3-0.5,0.2c0,0.3,0,0.6-0.3,0.7h0.5c0.1,0.1,0.4,0.3,0.3,0.5c0.4,0.1,0.9-0.2,1.1,0.2
					C27.9,93.6,28.1,93.5,28.2,93.4 M31,105.3c0.6-0.3,0.9-0.6,1.7-0.7c-0.1,0.2,0.1,0.4,0.2,0.5c0.6-0.6,0.9-0.1,1.4,0.2
					c0.2,0.2,0.5,0.3,0.7,0.2c0-0.1,0.1-0.2,0.1-0.2h0.3c0.4,0.9,1.9,1.5,2,2.5c0.9,0.4,2.2,0.1,2.9,1c1.8,2-2.2,2.7-1.6,4.7
					c-0.3,1.3-1.4,1.5-2.6,1.7c-0.4,1-1.2,1.4-2.1,2c-1.3-0.1-1.5,0.9-2.6,1.2c-0.4,1.3-1.5,1.7-1.9,3c0.2,0.4,0.9,0.2,0.8,0.7
					c-0.9,0-2.1-0.5-2.1-1.5c0.4-2.8,2.5-4.9,2.6-7.7c-1.4-1-1.6-2.9-1.6-4.7c0.9-0.4,0.7-1.3,1-2l-0.5-0.5c-0.5,0.7-0.9-0.4-1.6,0
					c0-0.2-0.1-0.3-0.3-0.5c-0.3-0.4-0.7-0.7-1-1c-1-0.3-2.2-0.4-3.1-1c-1.2-0.1-0.5-1.4-1.6-1.7c-0.1,0.1-0.4,0.3-0.3,0.5
					c-1.7-0.4-1-2.2-1.8-3.2c0.2-0.7,0.2-1.4,0.1-2c-0.1-0.4-0.3-0.8-0.6-1.2c-1.7-1.8-3.5,1.3-5.5,0.2c0.7-0.1,1.3-0.4,1.8-1
					c-0.2-0.2-0.6-0.4-0.5-0.7l0.3-0.3l-0.3-0.2l0.3-0.2c-0.1-0.1-0.4-0.3-0.3-0.5c1-0.8,2.3-1.8,3.9-1.7c1.2-0.4,2.9,0.9,4-0.5
					c-0.6,0-1.1-0.8-0.5-1.2c0.4,0.1,0.8-0.6,1.1,0c0.3-0.2,0.2-0.5,0.2-0.8c0.9-0.4,1.8,0.9,2.1-0.2h0.5c-0.1,0.2,0.1,0.4,0.3,0.5
					l0.3-0.3l0.2,0.3c0.7-0.7,1.2,0.7,2.1,0.2c0.7,0.4,1.1,1.4,1.3,2.2c-0.3,0-0.6-0.1-0.8,0.2l1.1,1c0.3-0.2,0.2-0.5,0.2-0.8
					c1.3,0.6,2,1.9,2.6,3c-1.4,0.2-2.6,0.8-3.4,2c0.8,2-2.7,2-1.1,4l-0.5,0.5c-0.1-0.5-0.2-0.9-0.5-1.2c-1.4,0.8-3.8-0.8-3.4,1.8
					c0.4,0.3,0.3,0.7,0.8,1c0.7,0.3,0.9-0.5,1.3-0.7v-0.2h1c0.6,0.9-1.2,2,0.5,2.2c0,0.3,0.1,0.6-0.2,0.7c0.1,0.3,0.4,0.5,0.6,0.5
					c0.2,0,0.4,0,0.6,0h0.3c0.2,0,0.4,0.1,0.5,0.2C30.8,105.5,30.9,105.4,31,105.3"/>
				<path class="st0" d="M50.5,100.4c0.2,0,0.5-0.1,0.9-0.1c0.4,0,0.7,0.1,0.9,0.2c0.2,0.1,0.3,0.4,0.3,0.6s-0.1,0.5-0.3,0.7
					c-0.2,0.2-0.5,0.3-0.9,0.3c-0.1,0-0.1,0-0.2,0v0.9h-0.7 M51.2,101.5c0,0,0.1,0,0.2,0c0.3,0,0.5-0.1,0.5-0.4
					c0-0.2-0.1-0.3-0.4-0.3c-0.1,0-0.2,0-0.2,0L51.2,101.5L51.2,101.5z"/>
				<path class="st0" d="M51.7,106l-0.2,0.6h-0.8l0.8-2.6h1l0.8,2.6h-0.8l-0.2-0.6 M52.3,105.4l-0.1-0.5c0-0.2-0.1-0.4-0.1-0.5l0,0
					c0,0.2-0.1,0.4-0.1,0.5l-0.1,0.5H52.3L52.3,105.4z"/>
				<polyline class="st0" points="51.1,107.7 51.1,108.7 52,108.7 52,107.7 52.7,107.7 52.7,110.3 52,110.3 52,109.3 51.1,109.3 
					51.1,110.3 50.3,110.3 50.3,107.7 				"/>
				<path class="st0" d="M52,112.7c0,0.8-0.5,1.4-1.4,1.4s-1.3-0.6-1.3-1.3c0-0.8,0.5-1.4,1.3-1.4C51.6,111.4,52,112,52,112.7
					 M50.1,112.7c0,0.5,0.2,0.8,0.6,0.8s0.6-0.3,0.6-0.8s-0.2-0.8-0.6-0.8S50.1,112.2,50.1,112.7"/>
				<path class="st0" d="M6.1,103c0,0.8-0.5,1.4-1.4,1.4s-1.3-0.6-1.3-1.3s0.5-1.4,1.3-1.4C5.7,101.7,6.1,102.3,6.1,103 M4.2,103
					c0,0.5,0.2,0.8,0.6,0.8s0.6-0.3,0.6-0.8s-0.2-0.8-0.6-0.8S4.2,102.6,4.2,103"/>
				<path class="st0" d="M3.4,105.9c0.2,0,0.5-0.1,0.9-0.1c0.4,0,0.7,0.1,0.9,0.2c0.2,0.1,0.3,0.4,0.3,0.6s-0.1,0.5-0.3,0.7
					c-0.2,0.2-0.5,0.3-0.9,0.3c-0.1,0-0.1,0-0.2,0v0.9H3.4 M4.2,107.1c0,0,0.1,0,0.2,0c0.3,0,0.5-0.1,0.5-0.4c0-0.2-0.1-0.3-0.4-0.3
					c-0.1,0-0.2,0-0.2,0V107.1L4.2,107.1z"/>
				<path class="st0" d="M4.6,111.5c0.2,0.1,0.4,0.2,0.7,0.2c0.2,0,0.4-0.1,0.4-0.2s-0.1-0.2-0.4-0.3c-0.5-0.2-0.8-0.4-0.8-0.8
					c0-0.5,0.4-0.8,1.1-0.8c0.3,0,0.6,0.1,0.7,0.1l-0.2,0.6c-0.1-0.1-0.3-0.1-0.6-0.1c-0.2,0-0.3,0.1-0.3,0.2c0,0.1,0.1,0.2,0.5,0.3
					c0.5,0.2,0.7,0.4,0.7,0.8c0,0.4-0.4,0.8-1.2,0.8c-0.3,0-0.7-0.1-0.8-0.2"/>
			</g>
			<g>
				<rect x="187.1" y="116.7" class="st0" width="139.9" height="0.5"/>
				<path class="st1" d="M190.1,93.2h2.3V93l0-0.3l0-0.3l0-0.3l0-0.3l0-0.3l0.1-0.3l0.1-0.3l0.1-0.3l0.1-0.3l0.1-0.2L193,90l0.1-0.3
					l0.1-0.2l0.1-0.2l0.1-0.2l0.1-0.2l0.1-0.2l0.1-0.2l0.1-0.2l0.1-0.2l0.1-0.2l0.1-0.2l0.1-0.2l0.1-0.2l0.2-0.2l0.1-0.2l0.2-0.2
					l0.2-0.2l0.2-0.2l0.2-0.2l0.2-0.2l-1.6-1.6l-0.2,0.2l-0.2,0.2l-0.2,0.2l-0.2,0.2l-0.2,0.2l-0.2,0.3l-0.2,0.3l-0.2,0.3l-0.2,0.3
					l-0.2,0.3l-0.2,0.3l-0.2,0.3l-0.1,0.3l-0.1,0.3l-0.1,0.3l-0.1,0.3l-0.1,0.3l-0.1,0.3l-0.1,0.3l-0.1,0.3l-0.1,0.3l-0.1,0.3
					l-0.1,0.3l-0.1,0.3l-0.1,0.3l-0.1,0.3l-0.1,0.3l0,0.3l0,0.3l0,0.3v0.3L190.1,93.2L190.1,93.2z M204.1,99.1l-0.4,0.1l-0.2,0.1
					l-0.1,0.1l0.1,6.4l0.1,0.4l0.1,0.3l0.1,0.2l0.1,0.1l0.1-0.1l0.1-0.2l0.1-0.3v-0.4l0.2-6.8L204.1,99.1L204.1,99.1z M203.4,97
					l0.6-0.2l0.4-0.1l0.2-6.8l-0.7,0.2l-0.5,0.2L203.4,97L203.4,97z M191.2,82.5l0.2-0.4l0.3-0.4l0.3-0.4l0.3-0.4l0.3-0.4l0.3-0.3
					l0.1-0.2l0.1-0.1l0.1-0.1l0.1-0.1l-0.2,0.1l-0.2,0.1l-0.2,0.1l-0.2,0.1l-0.2,0.1l-0.2,0.1l-0.2,0.1l-0.2,0.1l-0.2,0.1l-0.2,0.1
					l-0.2,0.2l-0.2,0.2l-0.2,0.2l-0.2,0.2l-0.2,0.2l-0.2,0.2l-0.2,0.2l-0.1,0.2l-0.2,0.2l-0.1,0.2l-0.1,0.2l-0.1,0.2l-0.1,0.2
					l-0.1,0.2l-0.1,0.2l-0.1,0.2l-0.1,0.2l-0.1,0.2l-0.1,0.2L188,85l-0.1,0.2l-0.1,0.2l0.2-0.2l0.2-0.2l0.2-0.2l0.2-0.2l0.5-0.4
					l0.5-0.3l0.2-0.2l0.2-0.2l0.2-0.2l0.2-0.2l0.2-0.2l0.2-0.2l0.1-0.2L191.2,82.5L191.2,82.5z M189.8,87l-0.1,0.1l-0.1,0.1
					l-0.1,0.1l-0.1,0.1l-0.3,0.3l-0.3,0.3l-0.4,0.3l-0.4,0.3l-0.2,0.2l-0.2,0.2l-0.2,0.2l-0.2,0.2l-0.1,0.1l-0.1,0.1l-0.1,0.2
					l-0.1,0.2l-0.1,0.2l-0.1,0.2l-0.1,0.2l-0.1,0.2l-0.1,0.2l-0.1,0.2l-0.1,0.2l-0.1,0.2l-0.1,0.2L186,92l-0.1,0.2l0,0.2l-0.2-1.6
					l-0.1-0.6l-0.1-0.7l-0.1-0.3l0-0.3l0-0.3l0-0.3l0-0.3v-0.3l0-0.3v-0.3l0-0.3l0.1-0.3l0.1-0.3l0.1-0.3l-0.2,0.4l-0.2,0.4
					l-0.1,0.2l-0.1,0.2l-0.1,0.2l-0.1,0.2l-0.1,0.2l-0.1,0.2l-0.1,0.2l-0.1,0.2l-0.1,0.2l0,0.2l0,0.2v0.6l0,0.2l0,0.2l0,0.2l0,0.2
					l0,0.2l0,0.2l0.1,0.3l0.1,0.3l0.1,0.3l0.1,0.3l0.3,0.6l0.3,0.6l0.1,0.3l0.1,0.3l0.1,0.3l0.1,0.3v-0.1l0-0.1l0-0.1l0-0.1l0.1-0.2
					l0.1-0.2l0.1-0.3l0.1-0.3l0.2-0.3l0.2-0.3l0.2-0.3l0.2-0.3l0.2-0.2l0.2-0.2l0.2-0.2l0.2-0.2l0.1-0.2l0.1-0.2l0.2-0.2l0.2-0.2
					l0.1-0.2l0.1-0.2l0.1-0.2l0.1-0.2l0.1-0.2l0.1-0.2l0.1-0.3l0.1-0.4l0.2-0.5L189.8,87L189.8,87z M188.5,91.1l-0.3,0.3l-0.2,0.3
					l-0.2,0.3l-0.2,0.3l-0.2,0.3l-0.2,0.3l-0.2,0.3l-0.1,0.3l-0.1,0.2l-0.1,0.2l-0.1,0.2l-0.1,0.2l-0.1,0.2l0,0.2l-0.1,0.2l0,0.2
					l0,0.2l0,0.2l0,0.2V96l0,0.2v0.7l0-0.2l-0.1-0.2l-0.1-0.2l-0.1-0.2l-0.1-0.2l-0.1-0.2l-0.1-0.2l-0.1-0.2l-0.2-0.4l-0.2-0.4
					l-0.2-0.4l-0.2-0.4l-0.2-0.4l-0.2-0.4l-0.2-0.4l-0.2-0.4l-0.1-0.2l-0.1-0.2l-0.1-0.2l-0.1-0.2l-0.1-0.2l0-0.2l0-0.2v-0.2
					l-0.1,0.4l-0.1,0.4l-0.1,0.4l0,0.3l0,0.3v0.3v0.3l0,0.3l0,0.3l0.1,0.3l0.1,0.3l0.1,0.2l0.1,0.2l0.1,0.2l0.1,0.2l0.1,0.2l0.1,0.2
					l0.1,0.2l0.1,0.2l0.1,0.2l0.3,0.4l0.3,0.4l0.4,0.4l0.4,0.4l0.4,0.5l0.4,0.5l0-0.2v-0.2v-0.2l0-0.2l0-0.2l0-0.2l0.1-0.2l0.1-0.2
					l0.1-0.4l0.2-0.4l0.2-0.4l0.2-0.5l0.2-0.5l0.2-0.5l0.1-0.2l0.1-0.2l0.1-0.3l0.1-0.3l0.1-0.3l0.1-0.3l0-0.3l0-0.3l0-0.3l0-0.3
					v-0.3L188.5,91.1L188.5,91.1z M188.9,103.2l-0.1-0.2l-0.1-0.2l0-0.2l0-0.2l0-0.2v-0.2l0-0.2v-0.2l0-0.5l0-0.5l0-0.5l0.1-0.5
					l0-0.5l0-0.6v-0.3l0-0.3v-0.5l0-0.3l0-0.3l0-0.3l-0.1-0.2l-0.1-0.3l-0.1-0.2l-0.1-0.2l-0.1-0.2l-0.2,0.7l-0.2,0.7l-0.1,0.4
					l-0.1,0.4l-0.1,0.4l-0.1,0.4l-0.1,0.4l0,0.4v0.2l0,0.2v0.2l0,0.2v0.2l0,0.2l0,0.2l0,0.2l0,0.2l0.1,0.2l0.1,0.2l0.1,0.2l-0.1-0.1
					l-0.1-0.2l-0.2-0.2l-0.2-0.3l-0.2-0.3l-0.3-0.4l-0.3-0.4l-0.3-0.4l-0.4-0.5l-0.4-0.5l-0.4-0.5l-0.4-0.5l-0.4-0.5l-0.4-0.5
					l-0.2-0.2l-0.1-0.2l-0.1-0.2l-0.1-0.2v0.5l0.1,0.5l0.1,0.4l0.1,0.4l0.1,0.4l0.1,0.4l0.2,0.4l0.2,0.3l0.2,0.3l0.2,0.3l0.2,0.3
					l0.2,0.3l0.2,0.3l0.2,0.3l0.2,0.2l0.3,0.2l0.3,0.2l0.2,0.2l0.2,0.2l0.2,0.2l0.5,0.3l0.4,0.3l0.4,0.3l0.3,0.2l0.1,0.1l0.1,0.1
					l0.1,0.1L188.9,103.2L188.9,103.2z M186.3,90l0.1-0.3l0.1-0.2l0.1-0.2l0.1-0.2l0.1-0.2l0.2-0.2l0.2-0.2l0.2-0.2l0.2-0.2l0.2-0.2
					l0.2-0.2l0.2-0.2l0.4-0.3l0.4-0.3l0.4-0.3l0.4-0.3l0.2-0.2l0.2-0.2l0.2-0.2l0.2-0.2l0.2-0.2l0.2-0.2l0.1-0.2l0.1-0.2l0.1-0.2
					l0.1-0.3l0.1-0.3l0.1-0.3l-0.2,0.2l-0.2,0.2l-0.2,0.2l-0.2,0.2l-0.5,0.3l-0.5,0.3l-0.5,0.3l-0.5,0.3l-0.2,0.2l-0.2,0.2l-0.2,0.2
					l-0.2,0.2l-0.2,0.2l-0.2,0.2l-0.2,0.2l-0.2,0.2l-0.1,0.2l-0.1,0.2l-0.1,0.2l-0.1,0.2l0.1-0.3l0.1-0.4l0.1-0.3l0.1-0.3l0.1-0.3
					l0.1-0.3l0-0.3l0-0.3l0.1-0.4l0-0.3l0-0.3l0.1-0.2l0.1-0.2l0.1-0.2l0.1-0.3l0.2-0.4l0.1-0.1l0.1-0.2l0.1-0.2l0.1-0.1l-0.2,0.2
					l-0.2,0.2l-0.2,0.2l-0.2,0.2l-0.2,0.2l-0.2,0.2l-0.2,0.2l-0.1,0.2l-0.1,0.2l-0.1,0.2l-0.1,0.3l-0.1,0.3l-0.1,0.3l-0.1,0.3
					l-0.1,0.3l-0.1,0.3l0,0.3l0,0.2v0.2l0,0.3v0.5l0,0.5l0,0.5l0,0.5l0.1,0.5L186.3,90L186.3,90z M192.1,106.6l-0.1-0.2l-0.1-0.2
					l-0.1-0.2l-0.1-0.2l-0.1-0.2l-0.1-0.2l-0.1-0.2l-0.1-0.2l-0.1-0.5l-0.1-0.5l-0.1-0.5l-0.1-0.5l-0.1-0.5l-0.1-0.5l-0.1-0.2
					l-0.1-0.3l-0.1-0.2l-0.1-0.2l-0.1-0.2l-0.1-0.2l-0.1-0.2l-0.1-0.2l-0.1-0.2l-0.1-0.2l-0.2-0.2l-0.2-0.2l0,0.4v1.2l0,0.4v1.1
					l0,0.3l0,0.3l0,0.2l0,0.2l0,0.2l0.1,0.2l0.1,0.2l0.1,0.2l0.1,0.2l0.1,0.2l0.1,0.2l0.1,0.2l0.1,0.2l0.1,0.2l-0.2-0.2l-0.2-0.2
					l-0.3-0.2l-0.3-0.2l-0.2-0.1l-0.2-0.1l-0.2-0.1l-0.2-0.1l-0.2-0.1l-0.2-0.1l-0.2-0.1l-0.2-0.1l-0.1-0.1l-0.1-0.1l-0.1-0.1
					l-0.1-0.1l-0.2-0.2l-0.2-0.2l-0.2-0.2l-0.2-0.2l-0.2-0.2l-0.2-0.2l-0.4-0.4l-0.4-0.4l-0.4-0.4l-0.3-0.4l0.1,0.3l0.2,0.5l0.2,0.5
					l0.2,0.4l0.2,0.4l0.2,0.4l0.2,0.3l0.2,0.3l0.3,0.3l0.3,0.3l0.3,0.2l0.3,0.2l0.3,0.2l0.3,0.2l0.3,0.2l0.3,0.2l0.3,0.1l0.3,0.1
					l0.3,0.1l0.3,0.1l0.3,0.1l0.6,0.2l0.5,0.1l0.2,0.1l0.2,0.1l0.2,0.1l0.2,0.1l0.2,0.1l0.2,0.1l0.1,0.1L192.1,106.6L192.1,106.6z
					 M195.8,109.2l-0.1-0.1l-0.1-0.1l-0.1-0.1l-0.1-0.2l-0.2-0.3l-0.1-0.4l-0.2-0.4l-0.2-0.4l-0.2-0.4l-0.2-0.4l-0.1-0.2l-0.1-0.2
					l-0.1-0.2l-0.1-0.2l-0.1-0.2l-0.1-0.2l-0.2-0.2l-0.1-0.2l-0.2-0.2L193,104l-0.2-0.2l-0.2-0.2l-0.2-0.2l-0.2-0.2l-0.2-0.2
					l-0.2-0.2l0.2,0.8l0.2,0.8l0.1,0.3l0.1,0.3l0.1,0.3l0.1,0.3l0.1,0.3l0.1,0.3l0.1,0.2l0.1,0.1l0.1,0.1l0.1,0.1l0.1,0.1l0.1,0.1
					l0.1,0.1l0.1,0.1l0.1,0.1l0.1,0.1l0.1,0.1l0.2,0.1l-0.3-0.1l-0.4-0.2l-0.4-0.2l-0.4-0.2l-0.2-0.1l-0.2-0.1l-0.3-0.1l-0.2-0.1
					l-0.3-0.1l-0.3-0.1L191,107l-0.3,0l-0.4-0.1l-0.4-0.1l-0.4-0.1l-0.3-0.1l-0.3-0.1l-0.3-0.1l-0.2-0.1l-0.2-0.1l-0.2-0.1l-0.2-0.1
					l-0.2-0.1l-0.2-0.1l-0.4-0.2l-0.4-0.2l0.3,0.5l0.3,0.4l0.3,0.4l0.3,0.3l0.3,0.3l0.3,0.3l0.3,0.3l0.3,0.2l0.3,0.2l0.3,0.2
					l0.3,0.2l0.3,0.1l0.3,0.1l0.3,0.1l0.3,0.1l0.3,0l0.3,0l0.3,0h0.3l0.3,0h0.6l0.6,0h0.2l0.2,0h0.4l0.2,0l0.2,0l0.2,0.1
					L195.8,109.2L195.8,109.2z M216.7,82.5l-0.2-0.4l-0.3-0.4l-0.3-0.4l-0.3-0.4l-0.3-0.4l-0.3-0.3l-0.1-0.2l-0.1-0.1l-0.1-0.1
					l-0.1-0.1l0.3,0.1l0.2,0.1l0.2,0.1l0.2,0.1l0.2,0.1l0.2,0.1l0.2,0.1l0.2,0.1l0.2,0.1l0.2,0.1l0.2,0.2l0.2,0.2l0.2,0.2l0.2,0.2
					l0.2,0.2l0.2,0.2l0.2,0.2l0.2,0.2l0.2,0.2l0.1,0.2l0.1,0.2l0.1,0.2l0.1,0.2l0.1,0.2l0.1,0.2l0.1,0.2l0.1,0.2l0.1,0.2l0.1,0.2
					l0.1,0.2l0.1,0.2l0.1,0.2l-0.2-0.2l-0.2-0.2l-0.2-0.2l-0.2-0.2l-0.5-0.4l-0.5-0.3l-0.2-0.2l-0.2-0.2l-0.2-0.2l-0.2-0.2l-0.2-0.2
					l-0.2-0.2l-0.1-0.2L216.7,82.5L216.7,82.5z M218.1,87l0.1,0.1l0.1,0.1l0.1,0.1l0.1,0.1l0.3,0.3l0.3,0.3l0.4,0.3l0.4,0.3l0.2,0.2
					l0.2,0.2l0.2,0.2l0.2,0.2l0.1,0.1l0.1,0.1l0.1,0.2l0.1,0.2l0.1,0.2l0.1,0.2l0.1,0.2l0.1,0.2l0.1,0.2l0.1,0.2l0.1,0.2l0.1,0.2
					l0.1,0.2l0.1,0.2l0.1,0.2l0,0.2l0.2-1.6l0.1-0.6l0.1-0.7l0.1-0.3l0-0.3l0-0.3l0-0.3l0-0.3v-0.3v-0.3v-0.3l0-0.3l0-0.3l-0.1-0.3
					l-0.1-0.3l0.3,0.4l0.2,0.4l0.1,0.2l0.1,0.2l0.1,0.2l0.1,0.2l0.1,0.2l0.1,0.2l0.1,0.2l0.1,0.2l0.1,0.2l0,0.2l0,0.2v0.2v0.2v0.2
					l0,0.2l0,0.2l0,0.2l0,0.2l0,0.2l0,0.2l-0.1,0.3l-0.1,0.3l-0.1,0.3l-0.1,0.3l-0.3,0.6l-0.3,0.6l-0.1,0.3l-0.1,0.3l-0.1,0.3
					l-0.1,0.3l0-0.1l0-0.1l0-0.1l0-0.1l-0.1-0.2l-0.1-0.2l-0.1-0.3l-0.1-0.3l-0.2-0.3l-0.2-0.3L221,92l-0.2-0.3l-0.2-0.2l-0.2-0.2
					l-0.2-0.2l-0.2-0.2l-0.1-0.2l-0.1-0.2l-0.2-0.2l-0.2-0.2l-0.1-0.2l-0.1-0.2l-0.1-0.2l-0.1-0.2l-0.1-0.2l-0.1-0.2l-0.1-0.3
					l-0.1-0.4l-0.2-0.5L218.1,87L218.1,87z M219.4,91.1l0.3,0.3l0.2,0.3l0.2,0.3l0.2,0.3l0.2,0.3l0.2,0.3l0.2,0.3l0.2,0.3l0.1,0.2
					l0.1,0.2l0.1,0.2l0.1,0.2l0.1,0.2l0,0.2l0.1,0.2l0,0.2l0,0.2l0,0.2l0,0.2V96l0,0.2v0.7l0-0.2l0.1-0.2l0.1-0.2l0.1-0.2l0.1-0.2
					l0.1-0.2l0.1-0.2l0.1-0.2l0.2-0.4l0.2-0.4l0.2-0.4l0.2-0.4l0.2-0.4l0.2-0.4l0.2-0.4l0.2-0.4l0.1-0.2l0.1-0.2l0.1-0.2l0.1-0.2
					l0.1-0.2l0-0.2l0-0.2v-0.2l0.1,0.4l0.1,0.4l0.1,0.4l0,0.3l0,0.3v0.3v0.3l0,0.3l0,0.3l0,0.3l-0.1,0.3l-0.1,0.2l-0.1,0.2l-0.1,0.2
					l-0.1,0.2l-0.1,0.2l-0.1,0.2l-0.1,0.2l-0.1,0.2l-0.1,0.2l-0.3,0.4l-0.3,0.4l-0.4,0.4l-0.4,0.4l-0.4,0.5l-0.4,0.5l0-0.2v-0.2
					v-0.2l0-0.2l0-0.2l0-0.2l-0.1-0.2L221,97l-0.1-0.4l-0.2-0.4l-0.2-0.4l-0.2-0.5l-0.2-0.5l-0.2-0.5l-0.1-0.2l-0.1-0.2l-0.1-0.3
					l-0.1-0.3l-0.1-0.3l-0.1-0.3l0-0.3l0-0.3l0-0.3l0-0.3v-0.3L219.4,91.1L219.4,91.1z M219.1,103.2l0.1-0.2l0.1-0.2l0-0.2l0-0.2
					l0-0.2v-0.2l0-0.2v-0.2l0-0.5l0-0.5l0-0.5l-0.1-0.5l0-0.5l0-0.6v-0.3v-0.3v-0.5l0-0.3l0-0.3l0-0.3l0.1-0.2l0.1-0.3l0.1-0.2
					l0.1-0.2l0.1-0.2l0.2,0.7l0.2,0.7l0.1,0.4l0.1,0.4l0.1,0.4l0.1,0.4l0.1,0.4l0,0.4v0.2l0,0.2v0.2v0.2l0,0.2l0,0.2l0,0.2l0,0.2
					l0,0.2l-0.1,0.2l-0.1,0.2l-0.1,0.2l0.1-0.1l0.1-0.2l0.2-0.2l0.2-0.3l0.2-0.3l0.3-0.4l0.3-0.4l0.3-0.4l0.4-0.5l0.4-0.5l0.4-0.5
					l0.4-0.5l0.4-0.5l0.4-0.5l0.2-0.2l0.1-0.2l0.1-0.2l0.1-0.2v0.5l-0.1,0.5l-0.1,0.4l-0.1,0.4l-0.1,0.4l-0.1,0.4l-0.2,0.4l-0.2,0.3
					l-0.2,0.3l-0.2,0.3l-0.2,0.3l-0.2,0.3l-0.2,0.3l-0.2,0.3l-0.3,0.2l-0.3,0.2l-0.2,0.2l-0.2,0.2l-0.2,0.2l-0.3,0.2l-0.5,0.3
					l-0.4,0.3l-0.4,0.3l-0.3,0.2l-0.1,0.1l-0.1,0.1l-0.1,0.1L219.1,103.2L219.1,103.2z M215.9,106.6l0.1-0.2l0.1-0.2l0.1-0.2
					l0.1-0.2l0.1-0.2l0.1-0.2l0.1-0.2l0.1-0.2l0.1-0.5l0.1-0.5l0.1-0.5l0.1-0.5l0.1-0.5l0.1-0.5l0.1-0.2l0.1-0.3l0.1-0.2l0.1-0.2
					l0.1-0.2l0.1-0.2l0.1-0.2l0.1-0.2l0.1-0.2l0.1-0.2l0.2-0.2l0.2-0.2l0,0.4v1.2l0,0.4v0.4l0,0.3l0,0.3l0,0.3l0,0.3l0,0.2l0,0.2
					l0,0.2l0,0.2l-0.1,0.2l-0.1,0.2l-0.1,0.2l-0.1,0.2l-0.1,0.2l-0.1,0.2l-0.1,0.2l-0.1,0.2l0.2-0.2l0.2-0.2l0.3-0.2l0.3-0.2
					l0.2-0.1l0.2-0.1l0.2-0.1l0.2-0.1l0.2-0.1l0.2-0.1l0.2-0.1l0.2-0.1l0.1-0.1l0.1-0.1l0.1-0.1l0.1-0.1l0.3-0.2l0.2-0.2l0.2-0.2
					l0.2-0.2l0.2-0.2l0.2-0.2l0.4-0.4l0.4-0.4l0.4-0.4l0.3-0.4l-0.1,0.3l-0.2,0.5l-0.2,0.5l-0.2,0.4l-0.2,0.4l-0.2,0.4l-0.2,0.3
					l-0.2,0.3l-0.3,0.3l-0.3,0.3l-0.3,0.2l-0.3,0.2l-0.3,0.2l-0.3,0.2l-0.3,0.2l-0.3,0.2l-0.3,0.1l-0.3,0.1l-0.3,0.1l-0.3,0.1
					l-0.3,0.1l-0.6,0.2l-0.5,0.1l-0.2,0.1l-0.2,0.1l-0.2,0.1l-0.2,0.1l-0.2,0.1l-0.2,0.1l-0.1,0.1L215.9,106.6L215.9,106.6z
					 M212.1,109.2l0.1-0.1l0.1-0.1l0.1-0.1l0.1-0.2l0.2-0.3l0.1-0.4l0.2-0.4l0.2-0.4l0.2-0.4l0.2-0.4l0.1-0.2l0.1-0.2l0.1-0.2
					l0.1-0.2l0.1-0.2l0.1-0.2l0.2-0.2l0.2-0.2l0.2-0.2l0.2-0.2l0.2-0.2l0.2-0.2l0.2-0.2l0.2-0.2l0.2-0.2l0.2-0.2l-0.2,0.8l-0.2,0.8
					l-0.1,0.3l-0.1,0.3l-0.1,0.3l-0.1,0.3l-0.1,0.3l-0.1,0.3l-0.1,0.2l-0.1,0.1l-0.1,0.1l-0.1,0.1l-0.1,0.1l-0.1,0.1l-0.1,0.1
					l-0.1,0.1l-0.1,0.1l-0.1,0.1l-0.1,0.1l-0.1,0.1l0.3-0.1l0.3-0.2l0.4-0.2l0.4-0.2l0.2-0.1l0.2-0.1l0.3-0.1l0.2-0.1l0.3-0.1
					l0.3-0.1l0.3-0.1l0.3,0l0.4-0.1l0.4-0.1l0.4-0.1l0.3-0.1l0.3-0.1l0.3-0.1l0.2-0.1l0.2-0.1l0.2-0.1l0.2-0.1l0.2-0.1l0.2-0.1
					l0.4-0.2l0.4-0.2l-0.3,0.5l-0.3,0.4l-0.3,0.4l-0.3,0.3l-0.3,0.3l-0.3,0.3l-0.3,0.3l-0.3,0.2l-0.3,0.2l-0.3,0.2l-0.3,0.2
					l-0.3,0.1l-0.3,0.1l-0.3,0.1l-0.3,0.1l-0.3,0l-0.3,0l-0.3,0h-0.3l-0.3,0h-0.6l-0.6,0h-0.3l-0.2,0h-0.4l-0.2,0l-0.2,0l-0.2,0.1
					L212.1,109.2L212.1,109.2z M221.7,90l-0.1-0.3l-0.1-0.2l-0.1-0.2l-0.1-0.2l-0.2-0.2l-0.2-0.2l-0.2-0.2l-0.2-0.2l-0.2-0.2
					l-0.2-0.2l-0.2-0.2l-0.2-0.2l-0.4-0.3l-0.4-0.3l-0.4-0.3l-0.4-0.3l-0.2-0.2l-0.2-0.2l-0.2-0.2l-0.2-0.2l-0.2-0.2l-0.2-0.2
					l-0.2-0.2l-0.1-0.2l-0.1-0.2l-0.1-0.3l-0.1-0.3l-0.1-0.3l0.2,0.2l0.2,0.2l0.2,0.2l0.2,0.2l0.5,0.3l0.5,0.3l0.5,0.3l0.5,0.3
					l0.2,0.2l0.2,0.2l0.2,0.2l0.2,0.2l0.2,0.2l0.2,0.2l0.2,0.2l0.1,0.2l0.1,0.2l0.1,0.2l0.1,0.2l0.1,0.2l-0.1-0.3l-0.1-0.4l-0.1-0.3
					l-0.1-0.3l-0.1-0.3l-0.1-0.3l0-0.3l0-0.3l-0.1-0.4l0-0.3l0-0.3l0-0.2l-0.1-0.2l-0.1-0.2l-0.1-0.3l-0.2-0.4l-0.1-0.1l-0.1-0.2
					l-0.1-0.2l-0.1-0.1l0.2,0.2l0.2,0.2l0.2,0.2l0.2,0.2l0.2,0.2l0.2,0.2l0.2,0.2l0.1,0.2l0.1,0.2l0.1,0.2l0.1,0.3l0.1,0.3l0.1,0.3
					l0.1,0.3l0.1,0.3l0.1,0.3l0,0.3l0,0.2l0,0.2V87l0,0.5l0,0.5l0,0.5l-0.1,0.5l-0.1,0.5L221.7,90L221.7,90z M190.4,109.6l0.3,0.2
					l0.3,0.1l0.3,0.1l0.3,0.1l0.3,0h0.3h0.4l0.4,0l0.4-0.1l0.4-0.1l0.4-0.1l0.4-0.1l0.8-0.2l0.9-0.2l0.4-0.1l0.5-0.1l0.5-0.1
					l0.5-0.1l0.5-0.1l0.5-0.1l0.5-0.1l0.5,0h0.5h0.5l0.5,0l0.5,0.1l0.5,0.1l0.5,0.1l0.5,0.2l0.5,0.2l0.6-0.2l0.6-0.1l0.6-0.1
					l0.6-0.1l0.5-0.1l0.5,0h0.5h0.5l0.5,0l0.4,0l0.4,0.1l0.4,0.1l0.4,0.1l0.4,0.1l0.4,0.1l0.4,0.1l0.8,0.2l0.7,0.2l0.4,0.1l0.4,0.1
					l0.4,0.1l0.4,0.1l0.4,0h0.4h0.4l0.4,0l0.4-0.1l0.4-0.1l0.4-0.1l0.4-0.1l-0.4,0.3l-0.4,0.3l-0.4,0.3l-0.4,0.2l-0.4,0.2l-0.4,0.2
					l-0.4,0.1l-0.4,0.1l-0.4,0.1l-0.4,0l-0.4,0h-0.4l-0.4,0l-0.4,0l-0.4-0.1l-0.4-0.1l-0.4-0.1l-0.4-0.1l-0.4-0.1l-0.4-0.1l-0.8-0.2
					l-0.8-0.2l-0.4-0.1l-0.4-0.1l-0.3-0.1l-0.3-0.1l-0.3-0.1l-0.3,0l-0.3,0H205l0.3,0.2l0.3,0.2l0.3,0.2l0.3,0.2l0.2,0.2l0.2,0.2
					l0.2,0.2l0.2,0.2l0.2,0.2l0.2,0.2l0.2,0.2l0.2,0.2l0.2,0.2l0.2,0.2l0.2,0.2l0.2,0.2l-0.2,0l-0.2,0l-0.2,0l-0.2,0l-0.1-0.2
					l-0.1-0.2l-0.2-0.2L207,112l-0.2-0.2l-0.2-0.2l-0.2-0.2l-0.2-0.2l-0.2-0.2l-0.2-0.2l-0.2-0.2l-0.3-0.2l-0.3-0.2l-0.3-0.2
					l-0.3-0.2L204,110l-0.3,0.1l-0.3,0.1l-0.3,0.1l-0.2,0.1l-0.2,0.1l-0.2,0.1l-0.2,0.2L202,111l-0.2,0.2l-0.2,0.2l-0.2,0.2
					l-0.2,0.2l-0.2,0.2l-0.2,0.2l-0.2,0.2l-0.2,0.3l-0.2,0l-0.3,0l-0.2,0l-0.2,0l0.3-0.4l0.4-0.4l0.2-0.2l0.2-0.2l0.2-0.2l0.2-0.2
					l0.2-0.2l0.2-0.2l0.2-0.2l0.2-0.2l0.3-0.2l0.3-0.2l0.3-0.2l0.3-0.2l-0.2,0h-0.2l-0.2,0l-0.3,0l-0.3,0.1l-0.3,0.1l-0.3,0.1
					l-0.3,0.1l-0.7,0.2l-0.8,0.2l-0.4,0.1l-0.4,0.1l-0.4,0.1l-0.4,0.1l-0.4,0.1l-0.4,0.1l-0.4,0.1l-0.4,0h-0.5h-0.4l-0.5,0l-0.4-0.1
					l-0.4-0.1l-0.4-0.1l-0.4-0.2l-0.4-0.2l-0.4-0.2l-0.4-0.2l-0.4-0.3L190.4,109.6L190.4,109.6z M204.8,100.6v0.2l0,0.2v0.4l0.2,0.2
					l0.2,0.2l0.1,0.1l0.1,0.1l0.1,0.1l0.1,0.1l0.1,0.1l0.1,0.1l0.1,0.1l0.1,0.1l0.1,0.2l0.1,0.2l0.1,0.2l0.1,0.2v-0.3l0-0.3l0-0.2
					l0-0.2l-0.1-0.2l-0.1-0.2l-0.1-0.2l-0.1-0.2l-0.1-0.2l-0.1-0.2l-0.1-0.1l-0.2-0.1l-0.2-0.1l-0.2-0.1l-0.2-0.1L204.8,100.6
					L204.8,100.6z M205,93.6v0.2l0,0.2v0.2l0,0.2v0.4v0.2v0.2l0.2,0.1l0.2,0.1l0.1,0.1l0.1,0l0.1,0.1l0.1,0.1l0.1,0.1l0.1,0.1l0,0.1
					l0,0.1l0,0.1l0,0.1v0.2l0,0.1l-0.1,0.1l-0.1,0.1l-0.1,0.1l-0.1,0.1l-0.1,0.1l-0.1,0.1l-0.1,0.1L205,97l-0.2,0.1l-0.2,0.1
					l-0.2,0.1l-0.4,0.1l-0.4,0.1l-0.2,0.1l-0.2,0.1l-0.2,0.1l-0.2,0.1l-0.2,0.1l-0.2,0.1l-0.2,0.1l-0.1,0.1l-0.1,0.1l-0.1,0.1
					l-0.1,0.1l-0.1,0.2l-0.1,0.2l-0.1,0.2l0,0.2v0.3l0,0.1l0.1,0.1l0.1,0.1l0.1,0.1l0.1,0.1l0.1,0.1l0.1,0.1l0.4,0.3l0.4,0.3v-0.3
					l0-0.3v-0.3l0-0.4v0l0-0.1v0l0-0.1l0.1-0.1l0.1-0.1l0.1-0.1l0.1-0.1l0.1-0.1l0.1-0.1l0.3-0.1l0.3-0.1l0.4-0.1l0.4-0.1l0.3-0.1
					l0.3-0.1l0.2-0.1l0.2-0.1l0.2-0.1l0.2-0.1l0.2-0.1l0.2-0.1l0.1-0.1l0.1-0.1l0.1-0.1l0.1-0.1l0.1-0.1l0.1-0.1l0.1-0.1l0.1-0.1
					l0-0.1l0-0.1l0-0.1v-0.1l0-0.1v-0.4l0-0.1l0-0.1l0-0.1l0-0.1l0-0.1l0-0.1l0-0.1l-0.1-0.1l-0.1-0.2l-0.1-0.2l-0.1-0.2l-0.2-0.1
					l-0.2-0.1l-0.2-0.1l-0.2-0.1l-0.2-0.1l-0.2-0.1l-0.2-0.1l-0.2-0.1L205,93.6L205,93.6z M205.2,81.3l0,0.7h0v0.2l0,0.7l0.3,0.1
					l0.3,0.1l0.3,0.1l0.2,0.1l0.2,0.1l0.2,0.1l0.1,0.1l0.1,0.1l0.1,0.1l0.1,0.1l0.1,0.1l0.1,0.1l0.1,0.1l0.1,0.1l0.1,0.1l0.1,0.1
					l0,0.1l0.1,0.1l0,0.1l0,0.1l0,0.1l0,0.1v0.1l0,0.1v0.1l0,0.1v0.1l0,0.1l0,0.1l0,0.1l-0.3-0.1l-0.3-0.1l-0.3-0.1l-0.3-0.1
					l-0.3-0.1l-0.3-0.1l-0.3-0.1l-0.3-0.1v0.5l0.3,0.1l0.3,0.1l0.3,0.1l0.3,0.1l0.3,0.1l0.3,0.1l0.3,0.1l0.3,0.1l-0.1,0.1l-0.1,0.1
					l-0.1,0.1l-0.1,0.1l-0.1,0.1l-0.2,0.1l-0.2,0.1l-0.2,0.1l-0.2,0.1l-0.2,0.1l-0.2,0.1l-0.2,0.1l-0.3,0.1l-0.3,0.1l-0.6,0.2
					l-0.6,0.2l-0.4,0.1l-0.4,0.1l-0.4,0.1l-0.4,0.1l-0.2,0.1l-0.2,0.1l-0.2,0.1l-0.2,0.1l-0.2,0.1l-0.2,0.1l-0.2,0.1l-0.2,0.1
					l-0.2,0.1l-0.1,0.1l-0.1,0.1l-0.1,0.1l-0.1,0.1l-0.1,0.2l-0.1,0.2l-0.1,0.2l-0.1,0.2l-0.1,0.2l-0.1,0.2l-0.1,0.2l0,0.2l0,0.2
					v0.2l0,0.2l0,0.2l0,0.2l0,0.2l0.1,0.2l0.1,0.2l0.1,0.2l0.1,0.2l0.1,0.2l0.1,0.1l0.1,0.1l0.1,0.1l0.1,0.1l0.1,0.1l0.1,0.1
					l0.1,0.1l0.1,0.1l0.1,0.1l0.1,0.1l0.1,0.1l0.1,0.1l0.3,0.1l0.2,0.1l0.2,0.1l0.2,0.1l0.2,0.1l0.2,0.1v-0.2l0-0.2v-0.2l0-0.2v-0.2
					l0-0.2V93l-0.2-0.1l-0.2-0.1l-0.1-0.1l-0.1-0.1l-0.1-0.1l-0.1-0.1l-0.1-0.1l-0.1-0.1l-0.1-0.1l-0.1-0.1l0-0.2l0-0.2v-0.2v-0.2
					l0-0.1l0-0.1l0.1-0.1l0.1-0.1l0.1-0.1l0.1-0.1l0.1-0.1l0.1-0.1l0.1-0.1l0.1-0.1l0.1-0.1l0.1-0.1l0.1-0.1l0.1-0.1l0.1-0.1
					l0.2-0.1l0.3-0.1l0.4-0.1l0.4-0.1l0.4-0.1l0.8-0.2l0.8-0.2l0.3-0.1l0.3-0.1l0.3-0.1l0.2-0.1l0.2-0.1l0.2-0.1l0.2-0.1l0.2-0.1
					l0.2-0.1l0.2-0.1l0.1-0.1l0.1-0.1l0.1-0.1l0.1-0.1l0.1-0.1l0.1-0.1l0.1,0.1l0.1,0.1l0.1,0.1l0.1,0.1v0h0l0.1,0.1l-1.7,1.7
					l-0.1-0.1l-0.1-0.1l-0.1-0.1l-0.1-0.1l-0.5,0.2l0.2,0.1l0.2,0.1l0.2,0.1l0.2,0.2l-0.6,0.7l0,0l-0.7,0.1l-0.1,0.2h-0.2l0.4-0.4
					l-0.1-0.1l-0.4,0.5h0.1v0.2l0.1,0.1l0.1,0.2h-0.5l-0.6-0.3l-0.1,2.4l0.5,0.2l0.5,0.2l0.5,0.2l0.4,0.4l0.4,0.4l0.3,0.5l0.2,0.5
					l0.1,0.3v0.3l-0.1,0.6l-0.2,0.5l-0.4,0.5l-0.4,0.4l-0.1,0.1l-0.2,0.1l-0.1,0.1l-0.1,0.1l-0.1,0.1l-0.2,0.1l-0.1,0.1l-0.8,0.2
					l-0.1,0l-0.1,0v0h0l-0.1,1.3l0.4,0.2l0.4,0.2l0.4,0.3l0.4,0.4l0.1,0.2l0.2,0.4l0.2,0.4l0.1,0.6v1.1l-0.1,0.2l-0.1,0.1l0,0l0,0
					l-0.2,0.1l-0.2,0.1l-0.2,0.1l-0.3,0l-0.2,0l-0.3,0l-0.2,0l-0.3,0l0,0.5l0.3,0l0.3,0l0.3,0l0.2,0l0.3-0.1l0.2,0l0.2-0.1l0.3-0.1
					l0.2-0.1l0.2-0.1l0.2-0.1l0.2-0.1l0.2-0.1l0.2-0.1l0.2-0.1l0.2-0.1l0.2-0.1l0.2-0.1l0.2-0.1l0.2-0.1l0.2-0.1l0.2-0.1l0.2-0.1
					l0.2-0.1l0.2-0.1l0.2-0.2l0.2-0.2l0.2-0.2l0.2-0.2l0.2-0.2l0.2-0.2l0.2-0.2l1.6,1.7l-0.2,0.2l-0.2,0.2l-0.2,0.2l-0.2,0.2
					l-0.2,0.2l-0.3,0.2l-0.3,0.2l-0.3,0.2l-0.3,0.2l-0.3,0.2l-0.3,0.2l-0.3,0.2l-0.3,0.2l-0.3,0.1l-0.3,0.1l-0.3,0.1l-0.3,0.1
					l-0.3,0.1l-0.3,0.1l-0.3,0.1l-0.3,0.1l-0.3,0.1l-0.3,0.1l-0.3,0.1l-0.3,0.1l-0.3,0.1l-0.3,0l-0.3,0l-0.3,0l-0.3,0h-0.4l-0.3,0
					h-0.7l-0.4,0l-0.3,0l-0.3,0l-0.3-0.1l-0.3-0.1l-0.3-0.1l-0.3-0.1l-0.3-0.1l-0.3-0.1l-0.3-0.1l-0.3-0.1l-0.3-0.1l-0.3-0.1
					l-0.3-0.1l-0.3-0.1l-0.3-0.1L198,106l-0.3-0.2l-0.3-0.2l-0.3-0.2l-0.3-0.2l-0.3-0.2l-0.3-0.2l-0.3-0.2l-0.3-0.2l-0.2-0.2
					l-0.3-0.2L195,104l-0.2-0.2l-0.2-0.2l1.6-1.6l0.4,0.3l0.4,0.3l0.4,0.3l0.4,0.3l0.4,0.2l0.4,0.2l0.2,0.1l0.2,0.1l0.2,0.1l0.2,0.1
					l0.2,0.1l0.2,0.1l0.2,0.1l0.2,0.1l0.2,0.1l0.2,0.1l0.2,0.1l0.2,0.1l0.2,0.1l0.2,0.1l0.2,0.1l0.2,0l0.2,0.1l0.2,0l0.2,0l0.2,0
					v-0.5l-0.2,0l-0.2,0l-0.2,0l-0.2,0l-0.2,0l-0.2-0.1l-0.2-0.1l-0.2-0.1l-0.4-0.1l-0.4-0.2l-0.4-0.2l-0.4-0.2l-0.4-0.2l-0.4-0.2
					l-0.4-0.2l-0.4-0.2l-0.4-0.3l-0.4-0.3l-0.3-0.3l-0.3-0.3l0.4-0.4l0,0l0.6,0.1l0.3-0.4l0.8,0.1l0.1-0.3v-0.1l0,0v0l0,0l0.2,0.2
					l0.2,0.2l0.2,0.2l0.2,0.2l0.2,0.1l0.2,0.1l0.2,0.1l0.3,0.1l0.3,0.1l0.3,0.1l0.3,0.1l0.3,0.1l0.3,0.1l0.3,0.1l0.3,0.1l0.3,0v-0.5
					l-0.3-0.1l-0.3-0.1l-0.3-0.1l-0.3-0.1l-0.3-0.1l-0.3-0.1l-0.3-0.1l-0.3-0.1l-0.3-0.1l-0.3-0.2l-0.3-0.2l-0.3-0.2l-0.2-0.2
					L199,100l-0.2-0.2l-0.2-0.2l1.7-1.7l0.2,0.1l0.2,0.1l0.2,0.1l0.2,0.1l0.2,0.1l0.2,0.1l0.2,0.1l0.2,0.1v0l0.1-0.2l0.1-0.2
					l-0.2-0.1l-0.1-0.1l-0.1-0.1l-0.1-0.1l-0.1-0.1l-0.1-0.1l-0.1-0.1l-0.1-0.1l1.7-1.7l0.1,0.1l0.1,0.1l0.1,0.1l0.1,0.1l0.1,0.1
					l0.1,0.1l0.1,0.1l0.1,0.1v-0.5l-0.2-0.1l-0.1-0.1l-0.1-0.1l-0.1-0.1l0.5-0.5l-0.5-0.2l-0.3,0.3l-0.1-0.1L202,95l-0.1-0.2
					l-0.1-0.2l-0.3-0.1l-0.1,0l0,0l-0.4-0.2l-0.4-0.2l-0.3-0.3l-0.3-0.3l-0.2-0.3l-0.2-0.4l-0.1-0.4l-0.1-0.3v-0.5l0.1-0.6l0.1-0.5
					l0-0.1l0.3-0.6l0.1-0.2l0,0l0-0.1l0.2-0.2l-1.6-1.6l0.2-0.2l0.2-0.2l0.2-0.2l0.3-0.2l0.2-0.2l0.3-0.2l0.3-0.2l0.3-0.1l0.3-0.1
					l0.3-0.1l0.3-0.1l0.3-0.1l0.3-0.1l0.3-0.1l0.3-0.1l0.3-0.1v-0.5l-0.3,0.1l-0.3,0.1l-0.3,0.1l-0.3,0.1l-0.3,0.1l-0.3,0.1
					l-0.3,0.1l-0.3,0.1l-0.3,0.2l-0.3,0.2l-0.3,0.2l-0.3,0.2l-0.3,0.2l-0.2,0.2l-0.3,0.2l-0.2,0.2l-0.2-0.2l-0.3,0.4l0.1,0.1
					l-0.3,0.3l-0.2,0.3l-0.2,0.3l-0.2,0.3l-0.2,0.3l-0.2,0.3l-0.2,0.3l-0.2,0.4l-0.1,0.4l-0.1,0.4l-0.1,0.4l-0.1,0.4l-0.1,0.4
					l-0.1,0.4l0,0.2l0,0.2l0,0.2v0.2h-2.3V93l0-0.3l0-0.3l0-0.3l0-0.3l0-0.3l0.1-0.2l0.1-0.2l0.1-0.2l0.1-0.2l0.1-0.2l0.1-0.2
					l0.1-0.2l0.1-0.2l0.1-0.2l0.1-0.2l0.1-0.2l0.1-0.2l0.1-0.2l0.1-0.2l0.1-0.2l0.1-0.2l0.1-0.2l0.1-0.2l0.1-0.2l0.1-0.2l0.1-0.2
					l0.2-0.2l0.2-0.2l0.2-0.2l0.2-0.2l0.2-0.2l0.8,0.8l0.5-0.2l-0.9-0.9l0.2-0.2l0.2-0.2l0.2-0.2l0.2-0.2l0.2-0.2l0.2-0.2l0.2-0.2
					l0.2-0.2l0.4-0.8l-0.3,0.2l-0.3,0.2l-0.3,0.2l-0.3,0.2l-0.3,0.2l-0.3,0.2l-0.3,0.3l-0.3,0.2l-1.6-1.6l0.2-0.2l0.2-0.2l0.2-0.2
					l0.2-0.2l0.2-0.2l0.2-0.2l0.2-0.2l0.2-0.2l0.2-0.2l0.2-0.2l0.2-0.2l0.2-0.1l0.2-0.1l0.3-0.1l0.2-0.1l0.2-0.1l0.3-0.1l0.3-0.1
					l0.3-0.1l0.3-0.1l0.3-0.1l0.3-0.1l0.3-0.1l0.3-0.1l0.3-0.1l0.3-0.1l0.3-0.1l0.3-0.1l0.3-0.1l0.3-0.1l0.3,0l0.3,0v-0.5l-0.7,0.1
					l-0.7,0.1l-0.6,0.2l-0.6,0.2l-0.6,0.2l-0.6,0.2l-0.6,0.3l-0.6,0.3l-0.6,0.3l-0.6,0.3l-0.5,0.3l-0.5,0.4l-0.5,0.4l-0.5,0.4
					l-0.5,0.4l-0.4,0.5l-0.4,0.5l-0.4,0.5l-0.4,0.5l-0.4,0.5l-0.3,0.6l-0.3,0.6l-0.3,0.6l-0.2,0.6l-0.2,0.6l-0.2,0.6l-0.2,0.6
					l-0.1,0.7l-0.1,0.7l-0.1,0.7l-0.1,0.7l0,0.7l0,0.7l0.1,0.7l0.1,0.7l0.1,0.7l0.2,0.7l0.2,0.7l0.2,0.7L191,99l0.3,0.6l0.3,0.6
					l0.4,0.6l0.4,0.6l0.4,0.6l0.4,0.5l0.4,0.5l0.5,0.5l0.5,0.5l0.5,0.4l0.5,0.4l0.6,0.4l0.6,0.4l0.6,0.3l0.6,0.3l0.6,0.3l0.7,0.2
					l0.7,0.2l0.7,0.2l0.7,0.2l0.7,0.1l0.7,0.1l0.7,0.1l0.7,0l0.7,0l0.7-0.1l0.7-0.1l0.7-0.1l0.7-0.2l0.7-0.2l0.7-0.2l0.6-0.2
					l0.6-0.3l0.6-0.3l0.6-0.3l0.6-0.4l0.6-0.4l0.6-0.4l0.5-0.4l0.5-0.5l0.5-0.5l0.4-0.5l0.4-0.5l0.4-0.6l0.4-0.6l0.3-0.6l0.3-0.6
					l0.3-0.6l0.3-0.7l0.2-0.7l0.2-0.7l0.2-0.7l0.1-0.7l0.1-0.7l0.1-0.7l0-0.7l0-0.7l-0.1-0.7l-0.1-0.7l-0.1-0.7l-0.1-0.7l-0.2-0.7
					l-0.2-0.6l-0.2-0.6l-0.2-0.6l-0.3-0.6l-0.3-0.6l-0.3-0.6l-0.4-0.5l-0.4-0.5l-0.4-0.5l-0.4-0.5l-0.4-0.5l-0.5-0.4l-0.5-0.4
					l-0.5-0.4l-0.5-0.4l-0.5-0.3l-0.6-0.3l-0.6-0.3l-0.6-0.3l-0.6-0.2l-0.6-0.2l-0.6-0.2l-0.6-0.2l-0.7-0.1l-0.7-0.1l-0.7-0.1v0.5
					l0.3,0l0.3,0l0.3,0.1l0.3,0.1l0.3,0.1l0.3,0.1l0.3,0.1l0.3,0.1l0.3,0.1l0.3,0.1l0.3,0.1l0.3,0.1l0.3,0.1l0.3,0.1l0.3,0.1
					l0.3,0.1l0.3,0.1l0.2,0.1l0.3,0.1l0.2,0.1l0.2,0.2l0.2,0.2l0.2,0.2l0.2,0.2l0.2,0.2l0.2,0.2l0.2,0.2l0.2,0.2l0.2,0.2l0.2,0.2
					l0.2,0.2l0.2,0.2l-1.6,1.6l0-0.2l-0.2-0.1l-0.3-0.1l0.1-0.2l-0.2-0.7l-0.4-0.4l-1.2-0.7l-0.1,0.1l-0.2,0.1l0.3,0.5l0,0l-0.2-0.1
					l-0.2-0.1l-0.2-0.1l-0.2-0.1l-0.2-0.2l-0.2-0.2l-0.2-0.2l-0.2-0.2l-0.2-0.2L208,82l-0.2-0.1l-0.2-0.1l-0.2-0.1l-0.3-0.1
					l-0.3-0.1l-0.3-0.1l-0.3-0.1l-0.3-0.1l-0.3,0l-0.2,0L205.2,81.3z M209.4,86.7l0.1-0.2l0.1-0.2l0.1-0.2l0-0.2l0-0.2l0-0.2l0-0.2
					l0-0.2v-0.3l0-0.2l0-0.2l0-0.1l0-0.2l0-0.1l-0.1-0.1l0.1,0.1l0.1,0.1l0.1,0.1l0.1,0.1l0.1,0.3l0.1,0.5v0.3l0.6,0.8l-0.3,0.1
					l0.2,0.2l-0.5,0.5l-0.2-0.3l-0.1,0.3l-0.1-0.1l-0.1-0.1l-0.1-0.1L209.4,86.7L209.4,86.7z M202.6,81.5l-0.4,0.2l-0.4,0.2
					l-0.4,0.2l-0.4,0.2l-0.2,0l-0.2,0l-0.1,0l-0.1,0l-0.1,0.1l-0.1,0.1l-0.1,0.1l-0.1,0.1l-0.1,0.1l-0.1,0.1l-0.1,0.1l-0.1,0.1
					l-0.1,0.1l-0.1,0.1l-0.1,0.1l-0.1,0.1l-0.1,0.1l-0.1,0.1l-0.1,0.1l-0.1,0.1l-0.1,0.1l-0.1,0.2l-0.1,0.1l-0.1,0.2l-0.1,0.2
					l-0.1,0.2l-0.1,0.2l-0.1,0.2l-0.1,0.4l-0.1,0.4h0v0.1l0,0l0,0.1l0,0.1l0,0.1l-0.1,0.1l-0.1,0.1l-0.1,0.1l-0.1,0.1l-0.1,0.1
					l-0.1,0.1l-0.1,0l-0.1,0l-0.1,0l-0.1,0l-0.1,0h-0.2l0.1,0h0.1l0.1,0h0.2l0.1,0l0.1,0l0.1-0.1l-0.1,0.2l-0.1,0.2l0,0.2l0,0.2
					l0.1-0.2l0.1-0.2l0.1-0.2l0.1-0.2l0.1-0.1l0.1-0.1l0.1-0.1l0.1-0.1l0.1-0.1l0.1,0l0.1,0l0.1,0l0,0l0.5-0.2l0.4-0.2l0.4-0.2
					l0.2-0.1l0.2-0.1l0.2-0.1l0.2-0.1l0.2-0.1l0.2-0.1l0.2-0.1l0.2-0.2l0.2-0.2l0.1-0.2l0.2-0.2l0.1-0.2l1-0.6L202.6,81.5
					L202.6,81.5z M199.4,84.1l0.2-0.4h0.3l-0.2,0.3L199.4,84.1L199.4,84.1z M204,76.2h-0.3l-0.3,0.1l-0.2,0.1l-0.2,0.2l-0.1,0.2
					l-0.1,0.2l-0.1,0.5v0.6l0.1,0.6l0.2,1l0.2,7.5l0.8-0.2l0.6-0.1l0.2-7.2l0.2-1l0.1-0.6l0.1-0.6v-0.5l-0.1-0.3l-0.1-0.2l-0.2-0.2
					l-0.2-0.1l-0.3-0.1L204,76.2L204,76.2z M206.7,80.9l0.1-0.1l-0.2-0.1h-0.7l-0.2,0.1l-0.4-0.1v0.1l0.7,0.1H206.7L206.7,80.9z
					 M205.3,96.1L205.3,96.1l-0.1-0.2l-0.2-0.2h-0.1v0.8l0.3-0.2l0.1-0.1V96.1L205.3,96.1z M214.3,88.3L214.3,88.3l0.1,0l0.1-0.1
					l-0.4-0.7l-0.5-0.7l-0.4-0.3l-0.2-0.2l-0.2-0.2l-0.2-0.2l-0.2-0.2l1.6-1.6l0.2,0.2l0.2,0.2l0.2,0.2l0.2,0.2l0.2,0.2l0.2,0.2
					l0.2,0.2l0.2,0.3l0.2,0.3l0.2,0.3l0.2,0.3l0.1,0.3l0.1,0.3l0.1,0.3l0.1,0.3l0.1,0.3l0.1,0.3l0.1,0.3l0.1,0.3l0.1,0.3l0.1,0.3
					l0.1,0.3l0.1,0.3l0.1,0.3l0.1,0.3l0.1,0.3l0.1,0.3l0,0.3l0,0.3l0,0.3l0,0.3v0.3h-2.3v-0.3l0-0.3l0-0.3l0-0.3l-0.1-0.3l-0.1-0.3
					l-0.1-0.3l-0.1-0.3l-0.1-0.3l-0.1-0.3l-0.1-0.3l-0.1-0.3l-0.1-0.3l-0.1-0.3l-0.1-0.3L214.3,88.3L214.3,88.3z M211,86.9L211,86.9
					l0.6,0.1l0.1,0.2l-0.1,0.2l0.8,0.5l0.1-0.1l1,1.2l0.4-0.2l0,0l0,0l0.1,0.2l0.1,0.2l0.1,0.3l0.1,0.3l0.1,0.3l0.1,0.3l0.1,0.3
					l0.1,0.3l0.1,0.3l0.1,0.3l0.1,0.3l0,0.3l0,0.3l0,0.3l0,0.3v0.3h-2.3V93l0-0.2l0-0.2l0-0.2l0-0.2l0-0.2l-0.1-0.2l-0.1-0.2
					l0.1-0.1l0.1-0.7l-0.1-0.8l-0.2-0.9l-0.7-1l0.1,0.1l0.1-0.1l-0.5-0.4l-0.1,0.1l0.5,0.8l0.3,0.6l0.2,0.6l0.1,0.4l0.1,0.7h-0.2
					l-0.1-0.2l-0.1-0.2l-0.1-0.2l-0.1-0.2l0.1-0.1l-0.2-0.2v-0.3l-0.2-0.2h-0.1l0-0.1l-0.1-0.1l0-0.1l-0.1-0.1h0h0.1l-0.1-0.2
					l0.1-0.1l-0.1-0.1l-0.2,0.1v0l0.1-0.3l-0.2-0.1l-0.1,0.2l-0.2-0.3l-0.2-0.3l-0.2-0.2l-0.2-0.2L211,86.9L211,86.9z M210,87.9
					L210,87.9L210,87.9l0.4,0.4l0,0l0.2,0.2l0.2,0.2l0.2,0.2l0.2,0.3h0l-0.2,0.1v0.4l0.7,0.4h0.1l0.1,0.2l0.1,0.2l0.1,0.2l0.1,0.2
					l0,0l0,0l-0.1,0.2l-0.2,0.1l-0.1,0.4l-0.2,0.1l-0.1,0.2L211,92h-0.2l0.1-0.2l0.1-0.5l0.2-0.1l-0.5-0.4l-0.4,0.1l-0.1,0.3
					l-0.2,0.2l-0.2-0.2l-0.1-0.2L210,91l0.1,0.1l0.1-0.1l-0.1-0.2h-0.2V91h-0.1l-0.5-0.6l-0.2-0.1l0.1-0.1l0.2-0.1l-0.2-0.1
					l-0.2,0.1l0.1,0.1h-0.3l-0.1-0.2l-0.1-0.2l-0.1-0.2l-0.1-0.2L210,87.9L210,87.9z M208.4,90.4L208.4,90.4L208.4,90.4l-0.1,0.3
					l-0.2-0.2l-0.2,0.1l0.1,0.2h0.1l-0.1,0.2l-0.1-0.1l-0.2-0.1l0.2-0.1v-0.1l-0.2-0.1l0.1-0.5l0.3-0.3l0.1,0.1l0.1,0.1l0.1,0.1
					L208.4,90.4L208.4,90.4z M209.5,103.1l0.2-0.5l-0.1-0.2l0.4-0.3v-0.2l-0.3-0.2l0.2-0.4l0.4-0.5l-0.4-0.4h-0.2l-0.2-0.2l0.1-0.1
					l0.1-0.1l0.1-0.1l0.1-0.1l0.8,0.8v0.1l0.2,0l0.6,0.6l-0.2,0.2l-0.2,0.2l-0.3,0.2l-0.3,0.2l-0.3,0.2l-0.3,0.2l-0.3,0.2
					L209.5,103.1L209.5,103.1z M209.7,98.8l0.1-0.2l-0.2-0.7l-0.3,0.5l-0.2-0.2l0.1-0.1l0.2-0.4l-0.1-0.1l0.2-0.4l-0.1-0.3l-0.1-0.3
					l-0.2-0.1l-0.1,0.2l-0.1,0l0.1-0.2l0.1-0.2l0.1-0.2l0.1-0.2l0.2-0.1l0.1-0.1l0.1,0.1l0.1-0.2l-0.1-0.1l0.1-0.1l0.2,0.1h0.4
					l0.2-0.1l0.6-0.2l-0.1-0.2l-0.1-0.2l0.3,0.1l0.1-0.1l-0.1-0.2l-0.4,0.1l-0.4-0.1l-0.3-0.7h0l0-0.1h1.8l0,0.4l0,0.4l-0.1,0.4
					l-0.1,0.4l-0.1,0.4l-0.1,0.3l-0.1,0.3l-0.1,0.3l-0.1,0.3l-0.2,0.3l-0.2,0.3l-0.2,0.3l-0.2,0.3l-0.2,0.3l-0.2,0.3L210,99
					L209.7,98.8L209.7,98.8z M208.7,98.6l-0.1,0v0l-0.1,0.1l-0.5-0.1l-0.1,0.1l-0.3-0.2l-0.2-0.1l0.3-0.3v0l0.3-0.1L208.7,98.6
					L208.7,98.6z M210.1,93.2v-0.1l0.2-0.2v-0.1l0.1-0.1l0.3-0.1v-0.1l-0.2-0.1l0.4-0.2l0.4-0.1l0.1-0.2l0.2-0.1l0.1-0.2l0.1-0.3v0
					v0l0,0l0,0.1l0,0.1l0,0.1l0,0.1l-0.1,0.1l-0.2,0.6l-0.1,0.2l0.3-0.3l0.1-0.2l0,0.3l0,0.3l0,0.3v0.3L210.1,93.2L210.1,93.2z
					 M207.3,89.3L207.3,89.3l-0.2,0.2l-0.1,0.2l-0.1-0.1l-0.4,0.1l0.1,0.2l0.2-0.1l0.2,0.1v-0.1l0.1-0.1l0.1-0.1l0.2-0.1h0.1
					L207.3,89.3L207.3,89.3z M211.6,100.8l0.1-0.1l-0.2-0.9l-0.1-0.1l0.1-0.1l-0.4-0.1l-0.1,0.3v0.4l-0.7-0.7l0.3-0.3l0.2-0.3
					l0.2-0.3l0.2-0.3l0.2-0.3l0.2-0.3l0.2-0.3l0.1-0.4l0.1-0.4l0.1-0.4l0.1-0.4l0.1-0.4l0.1-0.4l0.1-0.4l0-0.4l0-0.4h2.3V94l0,0.3
					l0,0.3l0,0.2l0,0.3l0,0.2l-0.1,0.2l-0.1,0.3l-0.1,0.2l-0.1,0.3l-0.1,0.2l-0.1,0.2l-0.1,0.2l-0.1,0.2l-0.1,0.2l-0.1,0.2L214,98
					l-0.1,0.2l-0.1,0.2l-0.1,0.2l-0.1,0.2l-0.1,0.2l-0.1,0.2l-0.1,0.2l-0.1,0.2l-0.1,0.2l-0.1,0.2l-0.1,0.2l-0.2,0.2l-0.2,0.2
					l-0.1,0.2l-0.2,0.2L211.6,100.8L211.6,100.8z M196.4,93.8L196.4,93.8l-0.2,0.6l0.2,0.2l-0.2,0.3h-0.4l0-0.3l0-0.3l0-0.3v-0.3
					L196.4,93.8L196.4,93.8L196.4,93.8z M195.3,94.5L195.3,94.5L195.3,94.5l-0.3,0.1l-0.1,0.3l-0.6,0.7l0.1,1.1l-0.7,0.2h-0.3
					l-0.1-0.4l-0.1-0.4l-0.1-0.4l-0.1-0.4L193,95l-0.1-0.4l0-0.4l0-0.4h2.3V94l0,0.2v0.2L195.3,94.5L195.3,94.5z M192.9,96.8
					L192.9,96.8L192.9,96.8l-0.2,0l-0.1-0.2l-0.7-0.1l0.2,0.3l-0.6-0.1l0.2-0.2l-0.2-0.1l-0.4,0.2L191,97l0.1,0.7l0.5,1.3l0.2,0.3
					l0.1,0.1l-0.4-0.7l-0.1-0.4l0.1-0.1l-0.1-0.2h0.2l0.4,0.5l0.1,0.1v-0.4l0.1,0.1l0.1,0.2l0.4,0.1l0.2-0.1h0.1v0.3l0.1,0.2h0.2
					l0.4,0.8l0.2,0.1l0.1-0.3l0,0l0,0l0.2,0.3l0.2,0.3l0.2,0.3l0.2,0.3l0.2,0.2l0.2,0.2l0.2,0.2l0.2,0.2l-1.6,1.6l-0.2-0.2l-0.2-0.2
					l-0.2-0.2l-0.2-0.2l-0.2-0.2l-0.2-0.2l-0.2-0.3l-0.2-0.3l-0.2-0.3l-0.2-0.3l-0.2-0.3l-0.1-0.3l-0.2-0.3l-0.1-0.3l-0.1-0.3
					l-0.1-0.3l-0.1-0.3l-0.1-0.3l-0.1-0.3l-0.1-0.3l-0.1-0.3l-0.1-0.3l-0.1-0.3l-0.1-0.3l-0.1-0.3l-0.1-0.3l-0.1-0.3l0-0.3l0-0.3
					l0-0.3l0-0.3v-0.3h2.3v0.4l0,0.4l0.1,0.4l0.1,0.4l0.1,0.4l0.1,0.4l0.1,0.4L192.9,96.8L192.9,96.8z M195.5,100.6l0.2-0.2l0.5,0.3
					l0.1,0l-0.4,0.4l-0.1-0.1l-0.1-0.1l-0.1-0.1L195.5,100.6L195.5,100.6z M197.6,98.6l0.1-0.6l-0.2-0.5l-0.1-0.9l-0.3-0.5l0.1-0.3
					l-0.4-0.7l-0.3-0.1l0.1-0.3l-0.1-0.3l0.1-0.3h0.4l0.1-0.2v0l0-0.1h0.5l0,0.1l0,0l0.1,0.2l-0.1,0.5l-0.1,0.1l0.2,0.4l-0.1,0.1
					l-0.1-0.1h-0.1l0.1,0.3l0.2,0.3h0.1l0.1-0.3l-0.1-0.1v-0.6l0.1-0.7l0-0.1l-0.1-0.1h0l0-0.1h0.4l0,0.3l0,0.3l0,0.3l0.1,0.2
					l0.1,0.2l0.1,0.2l0.1,0.2l0.1,0.2l0.1,0.2l0.1,0.2l0.1,0.2l0.1,0.2l0.1,0.2l0.2,0.2l0.1,0.2l0.2,0.2l-1.7,1.7l-0.1-0.1l-0.1-0.1
					l-0.1-0.1L197.6,98.6L197.6,98.6z M197.4,93.2l-0.2-0.3v-0.4l0.3-0.2l0.5,0.1l0.1,0.1v0l0,0.1l0,0.1V93l0,0.1v0.1L197.4,93.2
					L197.4,93.2z M198.6,94.1L198.6,94.1l0.2,0.3h0.4l0.4,0.3l0.1-0.1l0.3,0.2l-0.2,0.1l0.4,0.2V95l0.2-0.3l0.2,0.2l0.2,0.2
					l-0.4,0.1l0.1,0.3l0.2-0.1v-0.1l0.2-0.1l0.1-0.5l0,0v-0.1l0-0.1l0.1,0.1l0.1,0.1l0.1,0.1l0.1,0.1l0.1,0.1l0.1,0.1l0.1,0.1
					l0.1,0.1l-1.7,1.7l-0.1-0.2l-0.1-0.2l-0.1-0.2l-0.1-0.2l-0.1-0.2l-0.1-0.2l-0.1-0.2l-0.1-0.2l-0.1-0.2l-0.1-0.2l-0.1-0.2
					l-0.1-0.2l-0.1-0.2l-0.1-0.2l0-0.2L198.6,94.1L198.6,94.1z M199.7,89.5L199.7,89.5L199.7,89.5l-0.6,0.7l-0.4,0.7h-0.1l-0.2,0.1
					h-0.1l-0.2,0.2l0.3-0.1l0.3-0.1l-0.1,0.1l-0.2,0.1h-0.1l-0.4,0.3l-0.4-0.1l-0.5,1l0.1,0.2l-0.3,0.3v0.3h-1l0-0.4l0-0.4l0.1-0.4
					l0.1-0.4l0.1-0.4l0.1-0.4l0.1-0.3l0.1-0.3l0.1-0.3l0.2-0.3l0.2-0.3l0.2-0.3l0.2-0.3l0.2-0.3l0.2-0.3l0.2-0.3L199.7,89.5
					L199.7,89.5z M211,83l-0.1-0.2l-0.3-0.2l-0.2,0.2l0.3,0.1l0.4,0.2L211,83L211,83z M209.6,89.7v0.2l0.4-0.1l0.1-0.2l-0.3-0.4
					l0.1-0.2l0.4,0.2l0.1-0.1h-0.1l-0.1-0.2l0.2-0.1l-0.2-0.2l-0.4,0.2l-0.1,0.2l-0.1,0.2l0.2,0.2l-0.1,0.1L209.6,89.7L209.6,89.7z
					 M192.5,100.3v-0.1l-0.2-0.5l-0.2-0.1L192.5,100.3z M202.2,91.4l0.1,0.2l0.1,0.2l0.2,0.2l0.3,0.2v-0.2l-0.2-0.3l0.1-0.2l0.1-0.1
					v-1h-0.1l-0.2,0.2l-0.2,0.2l-0.1,0.2L202.2,91.4L202.2,91.4z M197.2,87l-0.2-0.2l0.3-0.1L197.2,87L197.2,87z M217.8,93.8h-2.3
					V94l0,0.3l0,0.3l0,0.3l0,0.3l0,0.3l-0.1,0.3l-0.1,0.3l-0.1,0.3l-0.1,0.2l-0.1,0.3l-0.1,0.2l-0.1,0.2l-0.1,0.2l-0.1,0.2l-0.1,0.2
					l-0.1,0.2l-0.1,0.2l-0.1,0.2l-0.1,0.2l-0.1,0.2l-0.1,0.2l-0.1,0.2l-0.1,0.2l-0.1,0.2l-0.2,0.2l-0.2,0.2l-0.1,0.2l-0.2,0.2
					l-0.2,0.2l-0.2,0.2l-0.2,0.2l1.6,1.6l0.2-0.2l0.2-0.2l0.2-0.2l0.2-0.2l0.2-0.2l0.2-0.3l0.2-0.2l0.2-0.3l0.2-0.3l0.1-0.3l0.2-0.3
					l0.1-0.3l0.1-0.3l0.1-0.3l0.1-0.3l0.1-0.3l0.1-0.3l0.1-0.3l0.1-0.3l0.1-0.3l0.1-0.3l0.1-0.3l0.1-0.3l0.1-0.3l0.1-0.3l0.1-0.3
					l0.1-0.3l0.1-0.3l0-0.3l0-0.3l0-0.3L217.8,93.8L217.8,93.8z"/>
				<path class="st0" d="M234.3,82.3c1.9,0,3.7,1.6,3.7,5.4s-1.8,5.3-3.7,5.3s-3.7-1.6-3.7-5.3S232.4,82.3,234.3,82.3 M234.3,91.5
					c1.1,0,1.9-1,1.9-3.9s-0.9-3.9-1.9-3.9s-1.9,1-1.9,3.9S233.3,91.5,234.3,91.5"/>
				<path class="st0" d="M239.2,86.4c0-0.5,0-0.9-0.1-1.3h1.5c0,0.5,0.1,0.9,0.1,1.4h0c0.2-0.6,0.7-1.5,1.8-1.5c0.1,0,0.2,0,0.3,0
					v1.7c-0.1-0.1-0.3-0.1-0.5-0.1c-0.7,0-1.4,0.5-1.4,1.9v4.2h-1.6"/>
				<path class="st0" d="M243.6,94c0.4,0.2,1.2,0.7,2,0.7c1.6,0,1.8-1.2,1.8-2.4v-0.7h0c-0.3,0.6-0.7,1.3-1.8,1.3
					c-1,0-2.4-0.7-2.4-3.8c0-2.1,0.7-4,2.5-4c1,0,1.5,0.6,1.8,1.3h0.1c0-0.4,0-0.8,0.1-1.2h1.5c0,0.4-0.1,0.8-0.1,1.2V92
					c0,2.4-0.6,4.1-3.2,4.1c-1.1,0-2-0.3-2.4-0.5 M246,91.5c1,0,1.4-0.8,1.4-2.6c0-1.6-0.5-2.5-1.3-2.5c-0.9,0-1.2,0.9-1.2,2.5
					C244.9,90.7,245.4,91.5,246,91.5"/>
				<path class="st0" d="M250.6,85.6c0.5-0.2,1.1-0.6,2.2-0.6c2.1,0,2.6,1.2,2.6,3.1v3.4c0,0.6,0.1,1.1,0.1,1.4H254
					c-0.1-0.3-0.1-0.7-0.1-1.1h0c-0.4,0.6-0.9,1.2-1.9,1.2c-1.1,0-2.1-0.8-2.1-2.2c0-2.1,1.5-2.6,3.6-2.6h0.3v-0.3
					c0-0.8-0.3-1.5-1.3-1.5c-0.8,0-1.6,0.4-1.9,0.8 M253.9,89.1h-0.1c-1.4,0-2.2,0.3-2.2,1.4c0,0.7,0.4,1.2,1.1,1.2
					c1,0,1.3-0.8,1.3-2.2L253.9,89.1L253.9,89.1z"/>
				<path class="st0" d="M256.8,86.4c0-0.5,0-0.9,0-1.3h1.5c0,0.4,0,0.8,0,1.2h0h0c0.2-0.5,0.7-1.3,1.8-1.3c1.6,0,2,1.3,2,2.8v4.9
					h-1.6v-4.6c0-1.2-0.3-1.7-1-1.7c-0.9,0-1.2,0.8-1.2,1.8v4.5h-1.6"/>
				<path class="st0" d="M263.5,81.9h1.7v1.8h-1.7 M263.6,85.2h1.6v7.7h-1.6V85.2z"/>
				<polyline class="st0" points="266.4,91.2 269.3,86.6 266.5,86.6 266.5,85.2 271,85.2 271,86.7 268.1,91.4 271.1,91.4 
					271.1,92.8 266.4,92.8 				"/>
				<path class="st0" d="M272.5,85.6c0.5-0.2,1.1-0.6,2.2-0.6c2.1,0,2.6,1.2,2.6,3.1v3.4c0,0.6,0,1.1,0.1,1.4h-1.5
					c-0.1-0.3-0.1-0.7-0.1-1.1h0c-0.4,0.6-0.9,1.2-1.9,1.2c-1.1,0-2-0.8-2-2.2c0-2.1,1.5-2.6,3.6-2.6h0.3v-0.3
					c0-0.8-0.3-1.5-1.3-1.5c-0.8,0-1.6,0.4-1.9,0.8 M275.7,89.1h-0.1c-1.4,0-2.2,0.3-2.2,1.4c0,0.7,0.4,1.2,1,1.2
					c1,0,1.3-0.8,1.3-2.2L275.7,89.1L275.7,89.1z"/>
				<path class="st0" d="M282.9,92.7c-0.4,0.2-1,0.3-1.6,0.3h-0.1l-0.2,0.8c0.1,0,0.3-0.1,0.5-0.1c0.7,0,1.2,0.5,1.2,1.1
					c0,0.9-0.8,1.4-1.5,1.4c-0.6,0-1.1-0.2-1.4-0.3l0.2-0.6c0.3,0.1,0.5,0.2,0.9,0.2c0.4,0,0.7-0.2,0.7-0.6s-0.2-0.6-0.6-0.6
					c-0.2,0-0.4,0.1-0.5,0.1l-0.2-0.2l0.4-1.2c-1.8-0.3-2.6-1.9-2.6-3.9c0-2.2,1-4,3.3-4c0.5,0,1.1,0.2,1.4,0.3l-0.1,1.5
					c-0.3-0.2-0.7-0.4-1.2-0.4c-1.2,0-1.8,0.9-1.8,2.6c0,1.4,0.6,2.5,1.9,2.5c0.4,0,1-0.2,1.2-0.4"/>
				<path class="st0" d="M284.4,85.6c0.5-0.2,1.1-0.6,2.2-0.6c2.1,0,2.6,1.2,2.6,3.1v3.4c0,0.6,0,1.1,0.1,1.4h-1.5
					c-0.1-0.3-0.1-0.7-0.1-1.1h0c-0.4,0.6-0.9,1.2-1.9,1.2c-1.1,0-2-0.8-2-2.2c0-2.1,1.5-2.6,3.6-2.6h0.3v-0.3
					c0-0.8-0.3-1.5-1.3-1.5c-0.8,0-1.5,0.4-1.9,0.8 M284.6,84.2c0-0.5,0.2-1.7,1.2-1.7c0.6,0,1.1,0.5,1.5,0.5c0.3,0,0.4-0.3,0.4-0.6
					h0.8c0,0.4-0.2,1.7-1.2,1.7c-0.5,0-1-0.5-1.5-0.5c-0.3,0-0.5,0.3-0.5,0.6H284.6L284.6,84.2z M287.6,89.1h-0.1
					c-1.4,0-2.2,0.3-2.2,1.4c0,0.7,0.4,1.2,1,1.2c1,0,1.3-0.8,1.3-2.2L287.6,89.1L287.6,89.1z"/>
				<path class="st0" d="M293.3,85c1.4,0,3,0.8,3,3.9s-1.6,4-3,4s-3-0.7-3-4S291.9,85,293.3,85 M293.3,91.7c1.1,0,1.3-1.4,1.3-2.7
					s-0.2-2.6-1.3-2.6S292,87.7,292,89S292.3,91.7,293.3,91.7"/>
				<polyline class="st0" points="238,98.5 238,98.5 235.7,107.2 234.5,107.2 232.3,98.5 232.2,98.5 232.2,107.2 230.7,107.2 
					230.7,96.8 233.2,96.8 235.1,104.5 235.2,104.5 237.1,96.8 239.6,96.8 239.6,107.2 238,107.2 				"/>
				<path class="st0" d="M246.3,105.9c0,0.5,0,0.9,0.1,1.3h-1.5c0-0.4-0.1-0.8-0.1-1.2l0,0v0c-0.3,0.6-0.7,1.3-1.8,1.3
					c-1.6,0-2-1.3-2-2.8v-4.9h1.6v4.6c0,1.2,0.3,1.7,1,1.7c0.9,0,1.1-0.9,1.1-1.9v-4.4h1.6"/>
				<path class="st0" d="M247.7,100.8c0-0.5,0-0.9-0.1-1.3h1.5c0,0.4,0.1,0.8,0.1,1.2h0h0c0.2-0.5,0.7-1.3,1.8-1.3
					c1.6,0,2,1.3,2,2.8v4.9h-1.6v-4.6c0-1.2-0.3-1.7-0.9-1.7c-0.9,0-1.2,0.8-1.2,1.8v4.5h-1.6"/>
				<path class="st0" d="M260.1,96v9.9c0,0.6,0,1,0.1,1.3h-1.5c0-0.2,0-0.7,0-1.2h0c-0.3,0.7-0.8,1.3-1.8,1.3
					c-1.7,0-2.4-1.8-2.4-3.9c0-2.5,0.9-4,2.4-4c1,0,1.5,0.6,1.8,1.2h0V96 M257.2,105.9c1,0,1.3-1.2,1.3-2.6s-0.4-2.6-1.3-2.6
					s-1.2,1-1.2,2.5C256,105,256.2,105.9,257.2,105.9"/>
				<path class="st0" d="M261.5,96.2h1.7V98h-1.7 M261.5,99.5h1.6v7.7h-1.6V99.5z"/>
				<path class="st0" d="M265,99.9c0.5-0.2,1.1-0.6,2.2-0.6c2.1,0,2.6,1.2,2.6,3.1v3.4c0,0.6,0,1.1,0.1,1.4h-1.5
					c-0.1-0.3-0.1-0.7-0.1-1h0c-0.4,0.6-0.9,1.2-1.9,1.2c-1.1,0-2-0.8-2-2.2c0-2.1,1.5-2.6,3.6-2.6h0.3v-0.3c0-0.8-0.3-1.5-1.3-1.5
					c-0.8,0-1.6,0.4-1.9,0.7 M268.2,103.4h-0.1c-1.4,0-2.2,0.3-2.2,1.4c0,0.7,0.4,1.2,1,1.2c1,0,1.3-0.8,1.3-2.2L268.2,103.4
					L268.2,103.4z"/>
				<rect x="271.3" y="96" class="st0" width="1.6" height="11.2"/>
				<path class="st0" d="M283.8,96v9.9c0,0.6,0,1,0.1,1.3h-1.5c0-0.2,0-0.7,0-1.2h0c-0.3,0.7-0.8,1.3-1.8,1.3
					c-1.7,0-2.4-1.8-2.4-3.9c0-2.5,0.9-4,2.4-4c1,0,1.5,0.6,1.8,1.2h0V96 M280.9,105.9c1,0,1.3-1.2,1.3-2.6s-0.4-2.6-1.3-2.6
					s-1.2,1-1.2,2.5C279.7,105,279.9,105.9,280.9,105.9"/>
				<path class="st0" d="M285.6,99.9c0.5-0.2,1.1-0.6,2.2-0.6c2.1,0,2.6,1.2,2.6,3.1v3.4c0,0.6,0,1.1,0.1,1.4H289
					c-0.1-0.3-0.1-0.7-0.1-1h0c-0.4,0.6-0.9,1.2-1.9,1.2c-1.1,0-2-0.8-2-2.2c0-2.1,1.5-2.6,3.6-2.6h0.3v-0.3c0-0.8-0.3-1.5-1.3-1.5
					c-0.8,0-1.6,0.4-1.9,0.7 M288.8,103.4h-0.1c-1.4,0-2.2,0.3-2.2,1.4c0,0.7,0.4,1.2,1,1.2c1,0,1.3-0.8,1.3-2.2L288.8,103.4
					L288.8,103.4z"/>
				<path class="st0" d="M295.2,105.2c0.3,0.2,1.1,0.6,2,0.6c0.7,0,1.4-0.5,1.4-1.5c0-0.7-0.4-1.1-1.2-1.6l-0.9-0.5
					c-0.9-0.6-1.5-1.4-1.5-2.7c0-1.9,1.4-2.8,2.9-2.8c1,0,1.7,0.3,2,0.4l-0.1,1.6c-0.4-0.2-1-0.4-1.7-0.4c-0.9,0-1.3,0.5-1.3,1.2
					c0,0.8,0.5,1.1,1,1.4l1,0.6c1.1,0.7,1.6,1.3,1.6,2.8c0,2.1-1.4,3.1-3.1,3.1c-0.9,0-1.6-0.2-2.1-0.5"/>
				<path class="st0" d="M301.9,99.9c0.5-0.2,1.1-0.6,2.2-0.6c2.1,0,2.6,1.2,2.6,3.1v3.4c0,0.6,0,1.1,0.1,1.4h-1.5
					c-0.1-0.3-0.1-0.7-0.1-1h0c-0.4,0.6-0.9,1.2-1.9,1.2c-1.1,0-2-0.8-2-2.2c0-2.1,1.5-2.6,3.6-2.6h0.3v-0.3c0-0.8-0.3-1.5-1.3-1.5
					c-0.8,0-1.6,0.4-1.9,0.7 M305.1,103.4H305c-1.4,0-2.2,0.3-2.2,1.4c0,0.7,0.4,1.2,1,1.2c1,0,1.3-0.8,1.3-2.2L305.1,103.4
					L305.1,103.4z"/>
				<path class="st0" d="M313.2,105.9c0,0.5,0,0.9,0,1.3h-1.5c0-0.4,0-0.8,0-1.2l0,0v0c-0.3,0.6-0.7,1.3-1.8,1.3c-1.5,0-2-1.3-2-2.8
					v-4.9h1.6v4.6c0,1.2,0.3,1.7,1,1.7c0.9,0,1.1-0.9,1.1-1.9v-4.4h1.6 M310.6,96.5h1.5l-1.4,2.2h-1L310.6,96.5L310.6,96.5z"/>
				<path class="st0" d="M320.3,96v9.9c0,0.6,0,1,0,1.3h-1.5c0-0.2,0-0.7,0-1.2h0c-0.3,0.7-0.8,1.3-1.8,1.3c-1.7,0-2.4-1.8-2.4-3.9
					c0-2.5,0.9-4,2.4-4c1,0,1.5,0.6,1.8,1.2h0V96 M317.3,105.9c1,0,1.3-1.2,1.3-2.6s-0.4-2.6-1.3-2.6s-1.2,1-1.2,2.5
					C316.1,105,316.3,105.9,317.3,105.9"/>
				<path class="st0" d="M326.6,106.8c-0.3,0.2-1.1,0.5-2,0.5c-2.2,0-3.2-1.8-3.2-3.8c0-2.3,1.1-4.1,2.8-4.1c1.5,0,2.7,1,2.7,4.1
					v0.4h-4c0,1.3,0.5,2.1,1.7,2.1c1,0,1.5-0.3,1.8-0.6 M325.4,102.7c0-1.4-0.4-2-1.1-2c-0.9,0-1.2,1-1.2,2H325.4z"/>
				<path class="st0" d="M187.2,122.1h2.4c0.5,0,0.9,0.1,1.2,0.2c0.3,0.1,0.6,0.3,0.8,0.5c0.2,0.2,0.4,0.5,0.5,0.8
					c0.1,0.3,0.2,0.6,0.2,1c0,0.2,0,0.5-0.1,0.7c-0.1,0.2-0.2,0.4-0.3,0.6c-0.1,0.2-0.3,0.4-0.6,0.5c-0.2,0.2-0.5,0.3-0.9,0.3v0
					c0.3,0.1,0.5,0.2,0.6,0.3c0.1,0.1,0.3,0.3,0.4,0.6l1.3,3.7h-1.2l-1.1-3.1c-0.1-0.4-0.3-0.7-0.5-0.8s-0.5-0.2-1-0.2h-0.5v4.2
					h-1.2L187.2,122.1L187.2,122.1z M188.3,126.2h0.9c0.3,0,0.6-0.1,0.8-0.1c0.2-0.1,0.4-0.2,0.5-0.4c0.1-0.2,0.2-0.3,0.3-0.5
					c0.1-0.2,0.1-0.4,0.1-0.6c0-0.5-0.2-0.9-0.5-1.2c-0.3-0.2-0.7-0.4-1.2-0.4h-0.9L188.3,126.2L188.3,126.2z"/>
				<path class="st0" d="M194.6,128.4c0,0.8,0.1,1.4,0.4,1.8c0.3,0.4,0.8,0.6,1.4,0.6c0.3,0,0.6-0.1,0.8-0.2
					c0.3-0.1,0.5-0.2,0.7-0.4l0.1,1c-0.3,0.1-0.6,0.2-0.9,0.3c-0.3,0.1-0.7,0.1-1,0.1c-0.9,0-1.6-0.3-2-0.9
					c-0.5-0.6-0.7-1.5-0.7-2.5c0-0.5,0.1-1,0.2-1.4s0.3-0.8,0.5-1.1c0.2-0.3,0.5-0.5,0.8-0.7c0.3-0.2,0.7-0.2,1.1-0.2
					c0.8,0,1.4,0.3,1.8,0.9c0.4,0.6,0.6,1.4,0.6,2.4v0.6L194.6,128.4L194.6,128.4z M197.3,127.5c0-1.4-0.4-2.1-1.3-2.1
					c-0.2,0-0.4,0-0.5,0.1c-0.2,0.1-0.3,0.2-0.4,0.4c-0.1,0.2-0.2,0.4-0.3,0.7s-0.1,0.6-0.1,1H197.3L197.3,127.5z"/>
				<path class="st0" d="M204.5,131.7c0,0.5-0.1,0.9-0.2,1.2c-0.2,0.3-0.4,0.6-0.6,0.8s-0.6,0.4-0.9,0.5c-0.4,0.1-0.7,0.1-1.1,0.1
					c-0.1,0-0.3,0-0.5,0c-0.2,0-0.4-0.1-0.5-0.1s-0.4-0.1-0.5-0.1s-0.3-0.1-0.4-0.1l0.1-1.1c0.2,0.2,0.5,0.3,0.9,0.4s0.7,0.2,1,0.2
					c0.7,0,1.2-0.2,1.4-0.6c0.3-0.4,0.4-0.9,0.4-1.4v-1.1h0c-0.4,0.8-1,1.1-1.8,1.1c-0.7,0-1.2-0.3-1.7-0.9
					c-0.4-0.6-0.6-1.4-0.6-2.6s0.2-2.1,0.6-2.6s1-0.9,1.8-0.9c0.3,0,0.6,0.1,0.9,0.3c0.3,0.2,0.5,0.5,0.7,0.8h0l0-1h1.1
					c0,0.2,0,0.4,0,0.6s0,0.4,0,0.6L204.5,131.7L204.5,131.7z M200.4,128c0,0.9,0.1,1.5,0.4,1.9c0.2,0.4,0.6,0.6,1.1,0.6
					s0.9-0.2,1.1-0.6c0.2-0.4,0.4-1.1,0.4-1.9s-0.1-1.5-0.4-1.9s-0.6-0.6-1.1-0.6s-0.9,0.2-1.1,0.6
					C200.5,126.5,200.4,127.1,200.4,128"/>
				<path class="st0" d="M207.2,123.2H206v-1.3h1.2V123.2z M206.1,124.6h1.1v6.8h-1.1V124.6z"/>
				<path class="st0" d="M209.2,125.1c0.3-0.2,0.6-0.3,0.9-0.4c0.3-0.1,0.7-0.1,1-0.1c0.2,0,0.5,0,0.7,0.1c0.2,0,0.4,0.1,0.5,0.2
					c0.1,0.1,0.3,0.1,0.4,0.2c0.1,0.1,0.2,0.1,0.2,0.2c0.1,0.1,0.3,0.3,0.4,0.6c0.1,0.2,0.2,0.6,0.2,1.1v3.5c0,0.2,0,0.4,0,0.6
					c0,0.2,0,0.3,0,0.5h-1l-0.1-0.9h0c-0.1,0.3-0.4,0.5-0.7,0.7c-0.3,0.2-0.7,0.3-1.2,0.3c-0.6,0-1-0.2-1.4-0.5
					c-0.4-0.3-0.6-0.8-0.6-1.5c0-0.3,0.1-0.6,0.2-0.9s0.3-0.5,0.6-0.7c0.2-0.2,0.6-0.4,1-0.5c0.4-0.1,0.9-0.2,1.5-0.2h0.6V127
					c0-0.3,0-0.5-0.1-0.6c0-0.2-0.1-0.3-0.2-0.5s-0.3-0.3-0.5-0.3c-0.2-0.1-0.4-0.1-0.6-0.1c-0.3,0-0.7,0.1-1,0.2
					c-0.3,0.1-0.6,0.3-0.8,0.5L209.2,125.1L209.2,125.1z M213.1,122c-0.1,0.4-0.2,0.8-0.4,1c-0.2,0.2-0.4,0.4-0.7,0.4
					c-0.1,0-0.2,0-0.4-0.1c-0.1,0-0.3-0.1-0.6-0.2c-0.2-0.1-0.3-0.2-0.4-0.2s-0.1,0-0.2,0c-0.1,0-0.2,0-0.3,0.1
					c-0.1,0.1-0.2,0.2-0.2,0.4h-0.7c0.1-0.4,0.2-0.8,0.4-1.1s0.5-0.4,0.9-0.4c0.1,0,0.2,0,0.4,0.1c0.1,0.1,0.3,0.1,0.6,0.3
					c0.1,0.1,0.2,0.1,0.3,0.1c0.1,0,0.1,0,0.2,0c0.2,0,0.4-0.2,0.4-0.6L213.1,122L213.1,122z M212.4,128.1c-0.1,0-0.2,0-0.4,0h-0.4
					c-0.7,0-1.1,0.1-1.5,0.4c-0.3,0.3-0.5,0.6-0.5,1c0,0.4,0.1,0.6,0.3,0.9c0.2,0.2,0.5,0.3,0.9,0.3c0.2,0,0.4-0.1,0.6-0.1
					s0.4-0.2,0.5-0.4s0.2-0.3,0.3-0.5c0.1-0.2,0.1-0.4,0.1-0.7L212.4,128.1L212.4,128.1z"/>
				<path class="st0" d="M214.7,128c0-1.1,0.2-1.9,0.7-2.5s1.1-0.9,2-0.9s1.6,0.3,2,0.9s0.7,1.5,0.7,2.5s-0.2,1.9-0.7,2.5
					c-0.5,0.6-1.1,0.9-2,0.9s-1.6-0.3-2-0.9C214.9,129.9,214.7,129.1,214.7,128 M215.8,128c0,0.9,0.1,1.5,0.4,1.9
					c0.2,0.4,0.6,0.6,1.2,0.6s0.9-0.2,1.2-0.6c0.2-0.4,0.4-1.1,0.4-1.9s-0.1-1.5-0.4-1.9s-0.6-0.6-1.2-0.6s-0.9,0.2-1.2,0.6
					C216,126.5,215.8,127.1,215.8,128"/>
				<path class="st0" d="M229.4,130.2c0,0.2,0,0.4,0,0.6c0,0.2,0,0.4,0,0.6h-1.1l0-1h0c-0.1,0.1-0.2,0.3-0.3,0.4
					c-0.1,0.1-0.2,0.2-0.4,0.4c-0.1,0.1-0.3,0.2-0.5,0.2c-0.2,0.1-0.4,0.1-0.6,0.1c-0.7,0-1.3-0.3-1.7-0.9c-0.4-0.6-0.6-1.4-0.6-2.6
					s0.2-2,0.6-2.6s1-0.9,1.7-0.9c0.4,0,0.7,0.1,1,0.2c0.3,0.2,0.5,0.4,0.7,0.8h0v-4.1h1.1L229.4,130.2L229.4,130.2z M228.2,128
					c0-0.9-0.1-1.5-0.4-1.9s-0.6-0.6-1.1-0.6s-0.9,0.2-1.1,0.6c-0.2,0.4-0.4,1.1-0.4,1.9s0.1,1.5,0.4,1.9c0.2,0.4,0.6,0.6,1.1,0.6
					s0.9-0.2,1.1-0.6C228.1,129.5,228.2,128.9,228.2,128"/>
				<path class="st0" d="M231.1,125.1c0.3-0.2,0.6-0.3,0.9-0.4c0.3-0.1,0.7-0.1,1-0.1c0.2,0,0.5,0,0.7,0.1c0.2,0,0.4,0.1,0.5,0.2
					c0.1,0.1,0.3,0.1,0.4,0.2c0.1,0.1,0.2,0.1,0.2,0.2c0.1,0.1,0.3,0.3,0.4,0.6c0.1,0.2,0.2,0.6,0.2,1.1v3.5c0,0.2,0,0.4,0,0.6
					c0,0.2,0,0.3,0,0.5h-1l-0.1-0.9h0c-0.1,0.3-0.4,0.5-0.7,0.7c-0.3,0.2-0.7,0.3-1.2,0.3c-0.6,0-1-0.2-1.4-0.5
					c-0.4-0.3-0.6-0.8-0.6-1.5c0-0.3,0.1-0.6,0.2-0.9s0.3-0.5,0.6-0.7c0.2-0.2,0.6-0.4,1-0.5c0.4-0.1,0.9-0.2,1.5-0.2h0.6V127
					c0-0.3,0-0.5-0.1-0.6c0-0.2-0.1-0.3-0.2-0.5s-0.3-0.3-0.5-0.3c-0.2-0.1-0.4-0.1-0.6-0.1c-0.3,0-0.7,0.1-1,0.2
					c-0.3,0.1-0.6,0.3-0.8,0.5L231.1,125.1L231.1,125.1z M234.3,128.1c-0.1,0-0.2,0-0.4,0h-0.4c-0.7,0-1.1,0.1-1.5,0.4
					c-0.3,0.3-0.5,0.6-0.5,1c0,0.4,0.1,0.6,0.3,0.9c0.2,0.2,0.5,0.3,0.9,0.3c0.2,0,0.4-0.1,0.6-0.1s0.4-0.2,0.5-0.4s0.2-0.3,0.3-0.5
					c0.1-0.2,0.1-0.4,0.1-0.7L234.3,128.1L234.3,128.1z"/>
				<path class="st0" d="M236.7,130.1c0.2,0.1,0.5,0.3,0.8,0.4c0.3,0.1,0.5,0.1,0.8,0.1c0.4,0,0.7-0.1,0.9-0.3
					c0.2-0.2,0.3-0.4,0.3-0.7c0-0.2-0.1-0.4-0.2-0.6c-0.1-0.2-0.4-0.3-0.7-0.5l-0.7-0.3c-0.5-0.2-0.8-0.5-1-0.7s-0.3-0.6-0.3-1
					c0-0.3,0.1-0.6,0.1-0.8c0.1-0.2,0.2-0.4,0.4-0.6c0.2-0.2,0.4-0.3,0.7-0.4c0.3-0.1,0.6-0.2,0.9-0.2c0.3,0,0.5,0,0.8,0.1
					c0.2,0,0.4,0.1,0.6,0.2l-0.1,1c-0.2-0.1-0.4-0.2-0.6-0.2c-0.2-0.1-0.5-0.1-0.7-0.1c-0.4,0-0.6,0.1-0.8,0.3
					c-0.2,0.2-0.3,0.4-0.3,0.7s0.1,0.5,0.3,0.7c0.2,0.2,0.5,0.3,0.8,0.5l0.4,0.2c0.4,0.2,0.7,0.4,1,0.7c0.2,0.3,0.4,0.6,0.4,1.1
					c0,0.3,0,0.6-0.1,0.8c-0.1,0.3-0.2,0.5-0.4,0.7c-0.2,0.2-0.4,0.3-0.7,0.4c-0.3,0.1-0.6,0.2-1,0.2c-0.4,0-0.7,0-1-0.1
					c-0.3-0.1-0.6-0.2-0.8-0.3L236.7,130.1L236.7,130.1z"/>
				<path class="st0" d="M247.9,122.1l3,9.3h-1.2L249,129h-3.5l-0.7,2.4h-1.2l3.1-9.3H247.9L247.9,122.1z M248.7,128l-1.4-4.6h0
					l-1.4,4.6H248.7z"/>
				<path class="st0" d="M251.8,126.1c0-0.2,0-0.5,0-0.7c0-0.2,0-0.5,0-0.7h1.1l0,1h0c0.2-0.4,0.4-0.7,0.7-0.8
					c0.3-0.2,0.6-0.3,1-0.3c0.7,0,1.2,0.4,1.6,1.1c0.2-0.3,0.4-0.6,0.7-0.8c0.3-0.2,0.6-0.3,1-0.3c0.6,0,1,0.2,1.4,0.5
					c0.4,0.3,0.5,0.9,0.5,1.7v4.7h-1.1v-4.7c0-0.4-0.1-0.8-0.3-1c-0.2-0.2-0.4-0.3-0.8-0.3c-0.4,0-0.7,0.1-0.9,0.4
					c-0.2,0.3-0.3,0.7-0.3,1.3v4.2h-1.1v-4.7c0-0.4-0.1-0.8-0.3-1c-0.2-0.2-0.4-0.3-0.8-0.3c-0.4,0-0.7,0.1-0.9,0.4
					c-0.2,0.3-0.3,0.7-0.3,1.3v4.2h-1.1L251.8,126.1L251.8,126.1z"/>
				<path class="st0" d="M262.2,128.4c0,0.8,0.1,1.4,0.5,1.7c0.3,0.4,0.8,0.6,1.4,0.6c0.3,0,0.6-0.1,0.8-0.2s0.5-0.2,0.7-0.4l0,1
					c-0.3,0.1-0.6,0.2-0.9,0.3c-0.3,0.1-0.7,0.1-1,0.1c-0.9,0-1.6-0.3-2-0.9c-0.5-0.6-0.7-1.5-0.7-2.5c0-0.5,0.1-1,0.2-1.4
					c0.1-0.4,0.3-0.8,0.5-1.1c0.2-0.3,0.5-0.5,0.8-0.7c0.3-0.2,0.7-0.2,1.1-0.2c0.8,0,1.4,0.3,1.8,0.9c0.4,0.6,0.6,1.4,0.6,2.4v0.6
					L262.2,128.4L262.2,128.4z M264.9,127.5c0-1.4-0.4-2.1-1.3-2.1c-0.2,0-0.4,0-0.5,0.1s-0.3,0.2-0.4,0.4c-0.1,0.2-0.2,0.4-0.3,0.7
					c-0.1,0.3-0.1,0.6-0.1,1H264.9L264.9,127.5z M263.7,121.8h1.3l-1.3,1.9h-0.9L263.7,121.8L263.7,121.8z"/>
				<path class="st0" d="M267.2,126.1c0-0.2,0-0.5,0-0.7c0-0.2,0-0.5,0-0.7h1.1l0,1.1h0c0.2-0.4,0.4-0.7,0.7-0.9s0.7-0.3,1.2-0.3
					v1.1c-0.1,0-0.3,0-0.4,0c-0.4,0-0.8,0.2-1,0.6s-0.4,0.9-0.4,1.7v3.6h-1.1L267.2,126.1L267.2,126.1z"/>
				<path class="st0" d="M272.4,123.2h-1.2v-1.3h1.2V123.2z M271.2,124.6h1.1v6.8h-1.1V124.6z"/>
				<path class="st0" d="M278,125.8c-0.2-0.1-0.4-0.2-0.6-0.2c-0.2-0.1-0.4-0.1-0.7-0.1c-0.5,0-1,0.2-1.3,0.6
					c-0.4,0.4-0.5,1.1-0.5,2c0,0.8,0.2,1.4,0.5,1.8c0.3,0.4,0.8,0.6,1.3,0.6c0.3,0,0.5,0,0.7-0.1s0.4-0.1,0.6-0.2l0,1
					c-0.2,0.1-0.4,0.1-0.6,0.2c-0.3,0.1-0.5,0.1-0.8,0.1c-0.5,0-0.9-0.1-1.3-0.3c-0.4-0.2-0.7-0.4-0.9-0.7c-0.2-0.3-0.4-0.7-0.5-1.1
					c-0.1-0.4-0.2-0.9-0.2-1.3c0-0.6,0.1-1,0.2-1.5c0.1-0.4,0.3-0.8,0.6-1.1c0.3-0.3,0.6-0.5,1-0.7c0.4-0.2,0.8-0.2,1.3-0.2
					c0.2,0,0.5,0,0.7,0.1c0.2,0,0.5,0.1,0.6,0.2L278,125.8L278,125.8z"/>
				<path class="st0" d="M279.4,125.1c0.3-0.2,0.6-0.3,0.9-0.4c0.3-0.1,0.7-0.1,1-0.1c0.2,0,0.5,0,0.7,0.1c0.2,0,0.4,0.1,0.5,0.2
					s0.3,0.1,0.4,0.2c0.1,0.1,0.2,0.1,0.2,0.2c0.1,0.1,0.3,0.3,0.4,0.6c0.1,0.2,0.2,0.6,0.2,1.1v3.5c0,0.2,0,0.4,0,0.6
					c0,0.2,0,0.3,0,0.5h-1l-0.1-0.9h0c-0.1,0.3-0.4,0.5-0.7,0.7c-0.3,0.2-0.7,0.3-1.2,0.3c-0.5,0-1-0.2-1.4-0.5
					c-0.4-0.3-0.6-0.8-0.6-1.5c0-0.3,0.1-0.6,0.2-0.9c0.1-0.3,0.3-0.5,0.5-0.7c0.2-0.2,0.6-0.4,1-0.5c0.4-0.1,0.9-0.2,1.5-0.2h0.6
					V127c0-0.3,0-0.5,0-0.6c0-0.2-0.1-0.3-0.2-0.5s-0.3-0.3-0.5-0.3c-0.2-0.1-0.4-0.1-0.6-0.1c-0.3,0-0.7,0.1-1,0.2
					c-0.3,0.1-0.6,0.3-0.8,0.5L279.4,125.1L279.4,125.1z M282.6,128.1c-0.1,0-0.2,0-0.4,0h-0.4c-0.7,0-1.1,0.1-1.5,0.4
					c-0.3,0.3-0.5,0.6-0.5,1c0,0.4,0.1,0.6,0.3,0.9c0.2,0.2,0.5,0.3,0.9,0.3c0.2,0,0.5-0.1,0.6-0.1c0.2-0.1,0.4-0.2,0.5-0.4
					s0.2-0.3,0.3-0.5c0.1-0.2,0.1-0.4,0.1-0.7L282.6,128.1L282.6,128.1z"/>
				<path class="st0" d="M285,130.1c0.2,0.1,0.5,0.3,0.8,0.4c0.3,0.1,0.5,0.1,0.8,0.1c0.4,0,0.7-0.1,1-0.3c0.2-0.2,0.3-0.4,0.3-0.7
					c0-0.2-0.1-0.4-0.2-0.6c-0.1-0.2-0.4-0.3-0.7-0.5l-0.7-0.3c-0.5-0.2-0.8-0.5-1-0.7c-0.2-0.2-0.3-0.6-0.3-1c0-0.3,0-0.6,0.1-0.8
					s0.2-0.4,0.4-0.6c0.2-0.2,0.4-0.3,0.7-0.4c0.3-0.1,0.6-0.2,0.9-0.2c0.3,0,0.5,0,0.8,0.1c0.2,0,0.5,0.1,0.6,0.2l0,1
					c-0.2-0.1-0.4-0.2-0.6-0.2c-0.2-0.1-0.5-0.1-0.7-0.1c-0.4,0-0.6,0.1-0.8,0.3c-0.2,0.2-0.3,0.4-0.3,0.7s0.1,0.5,0.3,0.7
					s0.5,0.3,0.8,0.5l0.4,0.2c0.4,0.2,0.7,0.4,1,0.7c0.2,0.3,0.4,0.6,0.4,1.1c0,0.3,0,0.6-0.1,0.8c-0.1,0.3-0.2,0.5-0.4,0.7
					c-0.2,0.2-0.4,0.3-0.7,0.4c-0.3,0.1-0.6,0.2-1,0.2c-0.4,0-0.7,0-1-0.1s-0.6-0.2-0.8-0.3L285,130.1L285,130.1z"/>
			</g>
		</g>
		<g>
			<path class="st0" d="M66.9,60.6c-21.1,0-33.4-9.5-33.4-27.8S45.8,5,66.9,5s33.7,9.8,33.7,27.8S88,60.7,66.9,60.6 M66.9,47.7
				c9.2,0,9.4-9.1,9.5-14.9c-0.1-5-0.7-14.9-9.5-14.9s-9.2,9.9-9.2,14.9C57.6,38.6,58.6,47.7,66.9,47.7"/>
			<path class="st0" d="M106.5,5.9h39.8c9.4,0,22.1,4,22.1,18.5s-10.1,19.8-22.2,19.8h-16.6v15.5h-23.1L106.5,5.9L106.5,5.9z
				 M129.1,31.7h5.1c5.5,0,11.1-0.9,11.1-6.9s-5.6-6.4-11.2-6.4h-5L129.1,31.7L129.1,31.7z"/>
			<path class="st0" d="M184.4,5.9h31.9l21.5,53.8h-24.3l-4-11.6H190l-3.7,11.6h-23.1L184.4,5.9L184.4,5.9z M193.2,35.1h13.4
				l-6.6-17.7h-0.2L193.2,35.1L193.2,35.1z"/>
			<path class="st0" d="M289.6,20.6c-5.2-1.6-11.3-2.7-17.9-2.7c-3.6,0-9.9,0.1-9.9,3.5c0,7,31.7,0.4,31.7,21.1
				c0,14.4-16,18-29.4,18c-8.9,0-16.2-0.8-24.9-2.5v-14c6.2,2.3,13.8,3.5,20.7,3.5c5.4,0,10.4-1,10.4-3.7c0-7.2-31.7-0.7-31.7-21.6
				c0-14.8,17.3-17.4,31-17.4c6.5,0,13.6,0.7,20,1.8L289.6,20.6L289.6,20.6z"/>
		</g>
	</g>
	<rect x="346.9" class="st0" width="1.8" height="139.3"/>
	<g>
		<path class="st0" d="M386.3,111.9V27.5h20.9c19.3,0,28.1,6.3,28.1,22c0,8.8-3.9,14.7-10.9,17.9v0.2c9.5,3.4,12.9,10.6,12.9,20.1
			c0,19.5-12.6,24.2-29,24.2L386.3,111.9L386.3,111.9z M407.7,62.5c7.2,0,13.5-2.6,13.5-11.9s-6.7-10.7-13.5-10.7h-7.8v22.6
			C399.9,62.5,407.7,62.5,407.7,62.5z M409.1,99.4c9.8,0,14-3.4,14-12.6s-4.7-12.9-13.9-12.9h-9.3v25.5L409.1,99.4L409.1,99.4z"/>
		<path class="st0" d="M449.3,111.9V27.5h14v84.4C463.3,111.9,449.3,111.9,449.3,111.9z"/>
		<path class="st0" d="M514.9,111.9l-12.1-34.8h-10.7v34.8h-14V27.5h22.3c18.1,0,26.8,6.9,26.8,23.4c0,10.7-4.6,17.3-11.9,20.6
			l14.7,40.5L514.9,111.9L514.9,111.9z M500.1,65.2c6.4,0,12.9-2.2,12.9-13c0-11.9-6.7-12.6-13-12.6h-7.9v25.6H500.1z"/>
		<path class="st0" d="M540,111.9V27.5h43.2v12.7H554v22h21.8v12.2H554v24.8h30.7v12.7L540,111.9L540,111.9z"/>
		<path class="st0" d="M648,111.9V49.8h-0.2l-15.2,62.1h-9.9l-15.5-62.1H607v62.1h-12.2V27.5h18.9l13.8,56.7h0.2L642,27.5h18.5v84.4
			C660.5,111.9,648,111.9,648,111.9z"/>
		<path class="st0" d="M675.3,111.9V27.5h43.2v12.7h-29.2v22h21.8v12.2h-21.8v24.8H720v12.7L675.3,111.9L675.3,111.9z"/>
	</g>
</g>
</svg>
