<?xml version="1.0" encoding="utf-8"?>
<!-- Generator: Adobe Illustrator 27.9.0, SVG Export Plug-In . SVG Version: 6.00 Build 0)  -->
<svg version="1.1" id="Layer_1" xmlns="http://www.w3.org/2000/svg" xmlns:xlink="http://www.w3.org/1999/xlink" x="0px" y="0px"
	 viewBox="0 0 190 59" style="enable-background:new 0 0 190 59;" xml:space="preserve">
<style type="text/css">
	.st0{fill-rule:evenodd;clip-rule:evenodd;fill:#00599C;}
</style>
<g>
	<path class="st0" d="M170.4,37.3c-0.1,0.3-0.1,0.5-0.2,0.7c0,0.2,0,0.4-0.1,0.6c0,0.2,0,0.4,0,0.8c0,0.2-0.1,0.4-0.1,0.6
		c0,0.9,0.2,1.8,0.6,2.4c0.4,0.7,1.2,1,2.2,1c1.3,0,2.4-0.3,3.2-1.1c0.9-0.8,1.7-2.5,2.4-5.1c0.2-0.4,0.4-0.9,0.4-1.5
		c0-0.5,0.1-1.1,0.1-1.6c0-1.1-0.4-2.1-0.8-3c-0.4-0.9-1.3-1.3-2.6-1.3c-1.1,0-2.1,0.4-2.8,1.3c-0.8,1-1.3,1.9-1.7,3
		c-0.2,0.6-0.4,1.1-0.5,1.7C170.5,36.5,170.4,36.9,170.4,37.3L170.4,37.3z M161.3,39.7c0-0.6,0-1.3,0.1-1.9c0.1-0.6,0.2-1.4,0.4-2.2
		c0.6-2.6,1.9-5,3.7-7.3c1.9-2.3,4.8-3.5,8.8-3.6c1.2,0,2.2,0.2,3.2,0.9c0.9,0.6,1.6,1.4,2.2,2.2c0.1,0.1,0.2,0.2,0.2,0.4
		c0.1,0.1,0.2,0.2,0.4,0.3l0.7-2.8h8.4l-6.7,31.2h-8.4l2.4-11.9c-0.6,0.6-1.1,1.3-1.7,1.7c-0.5,0.4-1.1,0.9-1.5,1.2
		c-0.7,0.4-1.4,0.6-2.2,0.8c-0.6,0.1-1.5,0.2-2.4,0.2c-2.7,0-4.5-0.6-5.6-1.9c-0.9-1.2-1.6-2.6-1.8-4c-0.1-0.5-0.2-1.1-0.2-1.6
		C161.3,40.8,161.3,40.3,161.3,39.7z M147.9,30.6c1.3,0.1,2.5-0.4,3.5-1.2c1-0.9,1.7-1.7,1.9-2.8c0-0.1,0.1-0.4,0.1-0.6
		c0-0.1,0-0.3,0-0.5c0-0.8-0.4-1.4-1-2.1c-0.5-0.5-1.6-0.9-3.1-0.9h-4.7l-1.7,8.1H147.9z M136.6,15.8h15c0.4,0.1,0.7,0.1,1.2,0.1
		c0.4,0,0.8,0,1.2,0c2.2,0.2,4.4,0.7,6.3,1.8c1.9,1.1,3,3,3,5.8c0,4.8-1.5,8.1-4.5,10.3c-3,2.1-6.6,3-10.6,3h-6.8l-2.4,11.2h-9.1
		L136.6,15.8z M100.3,15.8h13l5.7,23.2l5.3-23.2h8.4l-7,32.3H113l-6-24.5L102,48.1h-8.4L100.3,15.8z M62.5,36.6c0-1.2,0-2.5,0.2-3.9
		c0.2-1.5,0.5-3,0.9-4.5c1-3.2,3-6.3,5.8-9.1c2.8-2.8,7.1-4.2,13-4.3c0.6,0,1.4,0,2.2,0c0.8,0.1,1.7,0.2,2.4,0.3
		c2.3,0.4,4.4,1,6.3,2.2c1.8,1.1,2.8,3,2.8,5.5c0,0.4,0,0.7,0,1.2c-0.1,0.4-0.2,0.9-0.4,1.3h-9.9c0.1-0.2,0.1-0.3,0.1-0.5
		c0-0.1,0-0.2,0-0.4c0-1-0.4-1.9-0.9-2.3c-0.6-0.5-1.3-0.9-2.1-1.1C82.8,21,82.4,21,82,20.8c-0.3,0-0.6,0-0.9,0
		c-0.2,0-0.6,0-0.8,0.1C80,21,79.8,21,79.4,21c-1.3,0.4-2.6,1.4-3.9,3c-1.2,1.7-2.2,4.2-2.9,7.3c0,0.4-0.1,0.6-0.1,0.9
		c-0.1,0.2-0.1,0.6-0.1,0.8c-0.1,0.6-0.2,1.2-0.2,1.7c-0.1,0.5-0.1,0.9-0.1,1.5c0,1.7,0.4,3.1,1,4.3c0.7,1.2,1.9,1.8,3.7,1.8
		c0.2,0,0.4,0,0.6,0c0.1,0,0.3-0.1,0.5-0.1c0.4,0,0.6,0,0.9-0.1c0.4-0.1,0.6-0.2,1.1-0.3c0.9-0.4,1.7-1,2.4-1.7
		c0.8-0.9,1.2-1.7,1.3-2.7l9.4-0.1c0.1,0.1,0.1,0.2,0.1,0.3c0,0,0,0.1,0,0.2c0,0.6-0.2,1.3-0.6,2.2c-0.4,1-1.1,2.1-1.9,3
		c-1.2,1.4-3,2.7-5.3,4c-2.4,1.2-5.4,1.9-9.1,1.9c-0.1,0-0.2,0-0.3,0c-0.1,0-0.4,0-0.4,0c-5,0-8.4-1.1-10.1-3.2
		c-1.6-2-2.6-4.2-2.9-6.7c0-0.4,0-0.8,0-1.2C62.5,37.4,62.5,37.1,62.5,36.6z M26.2,24.5c0-3.6,2.9-6.4,6.3-6.4
		c3.5,0,6.3,2.8,6.3,6.4c0,3.5-2.8,6.3-6.3,6.3C29.1,30.8,26.2,28,26.2,24.5z M54.4,13.7c4.7,10.2,1.7,20-1.8,24.6l5.3,19.7h-6.3
		l-6.1-21.2c3.7-3.7,6.3-11.1,4.3-17.2c-1.7-6.1-6.8-11.4-14-12.8c-7.9-1.7-15.3,2.4-18.4,7.8c-2,3.2-2.4,6-2.7,9.6
		c0,0-3.9,9.4-5.3,12.9h4.2v14.5h25.8l1.8,6.6H7.2V42.8H0c0,0,7.8-17.9,7.8-18.5c0.5-6.4,3.3-14.2,9.4-18.9c3-2.4,7.1-4.6,12.7-5.2
		c6-0.6,8.6,0.4,12.5,1.9C49,4.9,53.5,11.2,54.4,13.7z M47.9,19.4c1,3.9,0.9,6.1,0.1,9.1c-0.9,3.5-2.7,6.1-4.5,7.6L50,58.3h-6.5
		c-2.1-8.1-4.8-17.1-6.9-25c1.3-0.8,5-2.8,5.5-7.7c0.6-4.5-2.2-8.1-4.2-9.4c-1.7-1.1-4.2-1.8-6.6-1.4c-4.5,0.5-7.6,4.1-8.4,8
		c-0.1,0.5-0.1,0.7-0.1,1.5c0,0-1.9,5-2.4,6.5h1.3v12.9h15.3l1.9,6.4H15.4V35.7l-3.2-0.1c1.2-3.5,4.2-11.2,4.2-11.2
		c0.3-2.8,0.5-8.2,6.3-12.7c2.6-2.2,6.8-3.7,11.2-3.3C41.4,9.2,46.2,14.2,47.9,19.4z"/>
</g>
</svg>
